<svg width="2048" height="2048" viewBox="0 0 2048 2048" fill="none" xmlns="http://www.w3.org/2000/svg">
<g clip-path="url(#clip0_157_385)">
<path d="M625.2 964.146C625.2 964.146 625.2 959.958 625.2 951.58V922.26V893.115V880.374C625.2 880.374 625.2 876.186 625.2 867.808V838.488V809.343V796.602C625.2 796.602 625.2 792.414 625.2 784.036V754.716V725.571V712.83C625.2 712.83 625.2 708.642 625.2 700.264V670.944V641.799V629.058C625.2 629.058 625.2 624.87 625.2 616.492V587.172V558.027V545.286C625.2 545.286 625.2 541.098 625.2 532.72V503.4V474.255V461.514C625.2 461.514 625.2 457.326 625.2 448.948V419.628V390.483V377.742C625.2 377.742 625.2 373.554 625.2 365.176V335.856V306.711V293.97C625.2 293.97 625.2 289.782 625.2 281.404V252.084V222.939V210.198C625.2 210.198 625.2 206.01 625.2 197.632V168.312V139.167V126.426C625.2 126.426 625.2 122.238 625.2 113.86V84.5402V55.3946V42.6543H637.766H667.086H696.232H708.972C708.972 42.6543 708.972 46.9011 708.972 55.3946V42.6543H721.538H750.858H780.004H792.744C792.744 42.6543 792.744 46.9011 792.744 55.3946V42.6543H805.31H834.63H863.776H876.516C876.516 42.6543 876.516 46.9011 876.516 55.3946V42.6543H889.082H918.402H947.548H960.288C960.288 42.6543 960.288 46.9011 960.288 55.3946V84.5402V113.86V126.426C960.288 126.426 956.041 126.426 947.548 126.426H918.402H889.082H876.516C876.516 126.426 876.516 122.238 876.516 113.86V126.426C876.516 126.426 872.269 126.426 863.776 126.426H834.63H805.31H792.744C792.744 126.426 792.744 122.238 792.744 113.86V126.426C792.744 126.426 788.497 126.426 780.004 126.426H750.858H721.538H708.972C708.972 126.426 708.972 122.238 708.972 113.86V126.426C708.972 126.426 704.725 126.426 696.232 126.426H708.972C708.972 126.426 708.972 130.673 708.972 139.167V168.312V197.632V210.198C708.972 210.198 704.725 210.198 696.232 210.198H708.972C708.972 210.198 708.972 214.445 708.972 222.939V252.084V281.404V293.97C708.972 293.97 704.725 293.97 696.232 293.97H708.972C708.972 293.97 708.972 298.217 708.972 306.711V335.856V365.176V377.742C708.972 377.742 704.725 377.742 696.232 377.742H708.972C708.972 377.742 708.972 381.989 708.972 390.483V419.628V448.948V461.514C708.972 461.514 704.725 461.514 696.232 461.514H708.972C708.972 461.514 708.972 465.761 708.972 474.255V461.514H721.538H750.858H780.004H792.744C792.744 461.514 792.744 465.761 792.744 474.255V461.514H805.31H834.63H863.776H876.516C876.516 461.514 876.516 465.761 876.516 474.255V461.514H889.082H918.402H947.548H960.288C960.288 461.514 960.288 465.761 960.288 474.255V503.4V532.72V545.286C960.288 545.286 956.041 545.286 947.548 545.286H918.402H889.082H876.516C876.516 545.286 876.516 541.098 876.516 532.72V545.286C876.516 545.286 872.269 545.286 863.776 545.286H834.63H805.31H792.744C792.744 545.286 792.744 541.098 792.744 532.72V545.286C792.744 545.286 788.497 545.286 780.004 545.286H750.858H721.538H708.972C708.972 545.286 708.972 541.098 708.972 532.72V545.286C708.972 545.286 704.725 545.286 696.232 545.286H708.972C708.972 545.286 708.972 549.533 708.972 558.027V587.172V616.492V629.058C708.972 629.058 704.725 629.058 696.232 629.058H708.972C708.972 629.058 708.972 633.305 708.972 641.799V670.944V700.264V712.83C708.972 712.83 704.725 712.83 696.232 712.83H708.972C708.972 712.83 708.972 717.077 708.972 725.571V754.716V784.036V796.602C708.972 796.602 704.725 796.602 696.232 796.602H708.972C708.972 796.602 708.972 800.849 708.972 809.343V838.488V867.808V880.374C708.972 880.374 704.725 880.374 696.232 880.374H708.972C708.972 880.374 708.972 884.621 708.972 893.115V880.374H721.538H750.858H780.004H792.744C792.744 880.374 792.744 884.621 792.744 893.115V880.374H805.31H834.63H863.776H876.516C876.516 880.374 876.516 884.621 876.516 893.115V880.374H889.082H918.402H947.548H960.288C960.288 880.374 960.288 884.621 960.288 893.115V922.26V951.58V964.146C960.288 964.146 956.041 964.146 947.548 964.146H918.402H889.082H876.516C876.516 964.146 876.516 959.958 876.516 951.58V964.146C876.516 964.146 872.269 964.146 863.776 964.146H834.63H805.31H792.744C792.744 964.146 792.744 959.958 792.744 951.58V964.146C792.744 964.146 788.497 964.146 780.004 964.146H750.858H721.538H708.972C708.972 964.146 708.972 959.958 708.972 951.58V964.146C708.972 964.146 704.725 964.146 696.232 964.146H667.086H637.766H625.2ZM960.288 880.374C960.288 880.374 960.288 876.186 960.288 867.808V838.488V809.343V796.602C960.288 796.602 960.288 792.414 960.288 784.036V754.716V725.571V712.83C960.288 712.83 960.288 708.642 960.288 700.264V670.944V641.799V629.058C960.288 629.058 960.288 624.87 960.288 616.492V587.172V558.027V545.286H972.854H1002.17H1031.32H1044.06C1044.06 545.286 1044.06 549.533 1044.06 558.027V587.172V616.492V629.058C1044.06 629.058 1039.81 629.058 1031.32 629.058H1044.06C1044.06 629.058 1044.06 633.305 1044.06 641.799V670.944V700.264V712.83C1044.06 712.83 1039.81 712.83 1031.32 712.83H1044.06C1044.06 712.83 1044.06 717.077 1044.06 725.571V754.716V784.036V796.602C1044.06 796.602 1039.81 796.602 1031.32 796.602H1044.06C1044.06 796.602 1044.06 800.849 1044.06 809.343V838.488V867.808V880.374C1044.06 880.374 1039.81 880.374 1031.32 880.374H1002.17H972.854H960.288ZM960.288 461.514C960.288 461.514 960.288 457.326 960.288 448.948V419.628V390.483V377.742C960.288 377.742 960.288 373.554 960.288 365.176V335.856V306.711V293.97C960.288 293.97 960.288 289.782 960.288 281.404V252.084V222.939V210.198C960.288 210.198 960.288 206.01 960.288 197.632V168.312V139.167V126.426H972.854H1002.17H1031.32H1044.06C1044.06 126.426 1044.06 130.673 1044.06 139.167V168.312V197.632V210.198C1044.06 210.198 1039.81 210.198 1031.32 210.198H1044.06C1044.06 210.198 1044.06 214.445 1044.06 222.939V252.084V281.404V293.97C1044.06 293.97 1039.81 293.97 1031.32 293.97H1044.06C1044.06 293.97 1044.06 298.217 1044.06 306.711V335.856V365.176V377.742C1044.06 377.742 1039.81 377.742 1031.32 377.742H1044.06C1044.06 377.742 1044.06 381.989 1044.06 390.483V419.628V448.948V461.514C1044.06 461.514 1039.81 461.514 1031.32 461.514H1002.17H972.854H960.288Z" fill="black"/>
<path d="M708.972 2005.81C708.972 2005.81 708.972 2001.63 708.972 1993.25V1963.93V1934.78V1922.04H721.538H750.858H780.004H792.744C792.744 1922.04 792.744 1926.29 792.744 1934.78V1922.04H805.31H834.63H863.776H876.516C876.516 1922.04 876.516 1926.29 876.516 1934.78V1922.04H889.082H918.402H947.548H960.288C960.288 1922.04 960.288 1926.29 960.288 1934.78V1963.93V1993.25V2005.81C960.288 2005.81 956.041 2005.81 947.548 2005.81H918.402H889.082H876.516C876.516 2005.81 876.516 2001.63 876.516 1993.25V2005.81C876.516 2005.81 872.269 2005.81 863.776 2005.81H834.63H805.31H792.744C792.744 2005.81 792.744 2001.63 792.744 1993.25V2005.81C792.744 2005.81 788.497 2005.81 780.004 2005.81H750.858H721.538H708.972ZM625.2 1922.04C625.2 1922.04 625.2 1917.85 625.2 1909.48V1880.16V1851.01V1838.27C625.2 1838.27 625.2 1834.08 625.2 1825.71V1796.38V1767.24V1754.5C625.2 1754.5 625.2 1750.31 625.2 1741.93V1712.61V1683.47V1670.73H637.766H667.086H696.232H708.972C708.972 1670.73 708.972 1674.97 708.972 1683.47V1712.61V1741.93V1754.5C708.972 1754.5 704.725 1754.5 696.232 1754.5H708.972C708.972 1754.5 708.972 1758.75 708.972 1767.24V1796.38V1825.71V1838.27C708.972 1838.27 704.725 1838.27 696.232 1838.27H708.972C708.972 1838.27 708.972 1842.52 708.972 1851.01V1880.16V1909.48V1922.04C708.972 1922.04 704.725 1922.04 696.232 1922.04H667.086H637.766H625.2ZM960.288 1922.04C960.288 1922.04 960.288 1917.85 960.288 1909.48V1880.16V1851.01V1838.27C960.288 1838.27 960.288 1834.08 960.288 1825.71V1796.38V1767.24V1754.5C960.288 1754.5 960.288 1750.31 960.288 1741.93V1712.61V1683.47V1670.73H972.854H1002.17H1031.32H1044.06C1044.06 1670.73 1044.06 1674.97 1044.06 1683.47V1712.61V1741.93V1754.5C1044.06 1754.5 1039.81 1754.5 1031.32 1754.5H1044.06C1044.06 1754.5 1044.06 1758.75 1044.06 1767.24V1796.38V1825.71V1838.27C1044.06 1838.27 1039.81 1838.27 1031.32 1838.27H1044.06C1044.06 1838.27 1044.06 1842.52 1044.06 1851.01V1880.16V1909.48V1922.04C1044.06 1922.04 1039.81 1922.04 1031.32 1922.04H1002.17H972.854H960.288ZM876.516 1670.73C876.516 1670.73 876.516 1666.54 876.516 1658.16V1628.84V1599.7V1586.95H889.082H918.402H947.548H960.288C960.288 1586.95 960.288 1591.2 960.288 1599.7V1628.84V1658.16V1670.73C960.288 1670.73 956.041 1670.73 947.548 1670.73H918.402H889.082H876.516ZM792.744 1586.95C792.744 1586.95 792.744 1582.77 792.744 1574.39V1545.07V1515.92V1503.18H805.31H834.63H863.776H876.516C876.516 1503.18 876.516 1507.43 876.516 1515.92V1545.07V1574.39V1586.95C876.516 1586.95 872.269 1586.95 863.776 1586.95H834.63H805.31H792.744ZM708.972 1503.18C708.972 1503.18 708.972 1498.99 708.972 1490.62V1461.3V1432.15V1419.41H721.538H750.858H780.004H792.744C792.744 1419.41 792.744 1423.66 792.744 1432.15V1461.3V1490.62V1503.18C792.744 1503.18 788.497 1503.18 780.004 1503.18H750.858H721.538H708.972ZM625.2 1419.41C625.2 1419.41 625.2 1415.22 625.2 1406.85V1377.52V1348.38V1335.64C625.2 1335.64 625.2 1331.45 625.2 1323.07V1293.75V1264.61V1251.87C625.2 1251.87 625.2 1247.68 625.2 1239.3V1209.98V1180.84V1168.1H637.766H667.086H696.232H708.972C708.972 1168.1 708.972 1172.34 708.972 1180.84V1209.98V1239.3V1251.87C708.972 1251.87 704.725 1251.87 696.232 1251.87H708.972C708.972 1251.87 708.972 1256.11 708.972 1264.61V1293.75V1323.07V1335.64C708.972 1335.64 704.725 1335.64 696.232 1335.64H708.972C708.972 1335.64 708.972 1339.89 708.972 1348.38V1377.52V1406.85V1419.41C708.972 1419.41 704.725 1419.41 696.232 1419.41H667.086H637.766H625.2ZM960.288 1335.64C960.288 1335.64 960.288 1331.45 960.288 1323.07V1293.75V1264.61V1251.87C960.288 1251.87 960.288 1247.68 960.288 1239.3V1209.98V1180.84V1168.1H972.854H1002.17H1031.32H1044.06C1044.06 1168.1 1044.06 1172.34 1044.06 1180.84V1209.98V1239.3V1251.87C1044.06 1251.87 1039.81 1251.87 1031.32 1251.87H1044.06C1044.06 1251.87 1044.06 1256.11 1044.06 1264.61V1293.75V1323.07V1335.64C1044.06 1335.64 1039.81 1335.64 1031.32 1335.64H1002.17H972.854H960.288ZM708.972 1168.1C708.972 1168.1 708.972 1163.91 708.972 1155.53V1126.21V1097.06V1084.32H721.538H750.858H780.004H792.744C792.744 1084.32 792.744 1088.57 792.744 1097.06V1084.32H805.31H834.63H863.776H876.516C876.516 1084.32 876.516 1088.57 876.516 1097.06V1084.32H889.082H918.402H947.548H960.288C960.288 1084.32 960.288 1088.57 960.288 1097.06V1126.21V1155.53V1168.1C960.288 1168.1 956.041 1168.1 947.548 1168.1H918.402H889.082H876.516C876.516 1168.1 876.516 1163.91 876.516 1155.53V1168.1C876.516 1168.1 872.269 1168.1 863.776 1168.1H834.63H805.31H792.744C792.744 1168.1 792.744 1163.91 792.744 1155.53V1168.1C792.744 1168.1 788.497 1168.1 780.004 1168.1H750.858H721.538H708.972Z" fill="black"/>
<path d="M1279.18 1485.68C1279.18 1485.68 1279.18 1481.49 1279.18 1473.11V1443.79V1414.64V1401.9H1291.74H1321.06H1350.21H1362.95C1362.95 1401.9 1362.95 1406.15 1362.95 1414.64V1401.9H1375.52H1404.84H1433.98H1446.72C1446.72 1401.9 1446.72 1406.15 1446.72 1414.64V1401.9H1459.29H1488.61H1517.75H1530.49C1530.49 1401.9 1530.49 1406.15 1530.49 1414.64V1443.79V1473.11V1485.68C1530.49 1485.68 1526.25 1485.68 1517.75 1485.68H1488.61H1459.29H1446.72C1446.72 1485.68 1446.72 1481.49 1446.72 1473.11V1485.68C1446.72 1485.68 1442.47 1485.68 1433.98 1485.68H1404.84H1375.52H1362.95C1362.95 1485.68 1362.95 1481.49 1362.95 1473.11V1485.68C1362.95 1485.68 1358.7 1485.68 1350.21 1485.68H1321.06H1291.74H1279.18ZM1195.41 1401.9C1195.41 1401.9 1195.41 1397.72 1195.41 1389.34V1360.02V1330.87V1318.13C1195.41 1318.13 1195.41 1313.94 1195.41 1305.57V1276.25V1247.1V1234.36C1195.41 1234.36 1195.41 1230.17 1195.41 1221.79V1192.47V1163.33V1150.59C1195.41 1150.59 1195.41 1146.4 1195.41 1138.02V1108.7V1079.56V1066.82C1195.41 1066.82 1195.41 1062.63 1195.41 1054.25V1024.93V995.784V983.044C1195.41 983.044 1195.41 978.855 1195.41 970.478V941.158V912.012V899.272C1195.41 899.272 1195.41 895.083 1195.41 886.706V857.386V828.24V815.5C1195.41 815.5 1195.41 811.311 1195.41 802.934V773.614V744.468V731.728C1195.41 731.728 1195.41 727.539 1195.41 719.162V689.842V660.696V647.956H1207.97H1237.29H1266.44H1279.18C1279.18 647.956 1279.18 652.203 1279.18 660.696V689.842V719.162V731.728C1279.18 731.728 1274.93 731.728 1266.44 731.728H1279.18C1279.18 731.728 1279.18 735.975 1279.18 744.468V773.614V802.934V815.5C1279.18 815.5 1274.93 815.5 1266.44 815.5H1279.18C1279.18 815.5 1279.18 819.747 1279.18 828.24V857.386V886.706V899.272C1279.18 899.272 1274.93 899.272 1266.44 899.272H1279.18C1279.18 899.272 1279.18 903.519 1279.18 912.012V941.158V970.478V983.044C1279.18 983.044 1274.93 983.044 1266.44 983.044H1279.18C1279.18 983.044 1279.18 987.291 1279.18 995.784V1024.93V1054.25V1066.82C1279.18 1066.82 1274.93 1066.82 1266.44 1066.82H1279.18C1279.18 1066.82 1279.18 1071.06 1279.18 1079.56V1108.7V1138.02V1150.59C1279.18 1150.59 1274.93 1150.59 1266.44 1150.59H1279.18C1279.18 1150.59 1279.18 1154.83 1279.18 1163.33V1192.47V1221.79V1234.36C1279.18 1234.36 1274.93 1234.36 1266.44 1234.36H1279.18C1279.18 1234.36 1279.18 1238.61 1279.18 1247.1V1276.25V1305.57V1318.13C1279.18 1318.13 1274.93 1318.13 1266.44 1318.13H1279.18C1279.18 1318.13 1279.18 1322.38 1279.18 1330.87V1360.02V1389.34V1401.9C1279.18 1401.9 1274.93 1401.9 1266.44 1401.9H1237.29H1207.97H1195.41ZM1530.49 1401.9C1530.49 1401.9 1530.49 1397.72 1530.49 1389.34V1360.02V1330.87V1318.13C1530.49 1318.13 1530.49 1313.94 1530.49 1305.57V1276.25V1247.1V1234.36C1530.49 1234.36 1530.49 1230.17 1530.49 1221.79V1192.47V1163.33V1150.59C1530.49 1150.59 1530.49 1146.4 1530.49 1138.02V1108.7V1079.56V1066.82C1530.49 1066.82 1530.49 1062.63 1530.49 1054.25V1024.93V995.784V983.044C1530.49 983.044 1530.49 978.855 1530.49 970.478V941.158V912.012V899.272C1530.49 899.272 1530.49 895.083 1530.49 886.706V857.386V828.24V815.5C1530.49 815.5 1530.49 811.311 1530.49 802.934V773.614V744.468V731.728C1530.49 731.728 1530.49 727.539 1530.49 719.162V689.842V660.696V647.956H1543.06H1572.38H1601.53H1614.27C1614.27 647.956 1614.27 652.203 1614.27 660.696V689.842V719.162V731.728C1614.27 731.728 1610.02 731.728 1601.53 731.728H1614.27C1614.27 731.728 1614.27 735.975 1614.27 744.468V773.614V802.934V815.5C1614.27 815.5 1610.02 815.5 1601.53 815.5H1614.27C1614.27 815.5 1614.27 819.747 1614.27 828.24V857.386V886.706V899.272C1614.27 899.272 1610.02 899.272 1601.53 899.272H1614.27C1614.27 899.272 1614.27 903.519 1614.27 912.012V941.158V970.478V983.044C1614.27 983.044 1610.02 983.044 1601.53 983.044H1614.27C1614.27 983.044 1614.27 987.291 1614.27 995.784V1024.93V1054.25V1066.82C1614.27 1066.82 1610.02 1066.82 1601.53 1066.82H1614.27C1614.27 1066.82 1614.27 1071.06 1614.27 1079.56V1108.7V1138.02V1150.59C1614.27 1150.59 1610.02 1150.59 1601.53 1150.59H1614.27C1614.27 1150.59 1614.27 1154.83 1614.27 1163.33V1192.47V1221.79V1234.36C1614.27 1234.36 1610.02 1234.36 1601.53 1234.36H1614.27C1614.27 1234.36 1614.27 1238.61 1614.27 1247.1V1276.25V1305.57V1318.13C1614.27 1318.13 1610.02 1318.13 1601.53 1318.13H1614.27C1614.27 1318.13 1614.27 1322.38 1614.27 1330.87V1360.02V1389.34V1401.9C1614.27 1401.9 1610.02 1401.9 1601.53 1401.9H1572.38H1543.06H1530.49ZM1279.18 647.956C1279.18 647.956 1279.18 643.767 1279.18 635.39V606.07V576.924V564.184H1291.74H1321.06H1350.21H1362.95C1362.95 564.184 1362.95 568.431 1362.95 576.924V564.184H1375.52H1404.84H1433.98H1446.72C1446.72 564.184 1446.72 568.431 1446.72 576.924V564.184H1459.29H1488.61H1517.75H1530.49C1530.49 564.184 1530.49 568.431 1530.49 576.924V606.07V635.39V647.956C1530.49 647.956 1526.25 647.956 1517.75 647.956H1488.61H1459.29H1446.72C1446.72 647.956 1446.72 643.767 1446.72 635.39V647.956C1446.72 647.956 1442.47 647.956 1433.98 647.956H1404.84H1375.52H1362.95C1362.95 647.956 1362.95 643.767 1362.95 635.39V647.956C1362.95 647.956 1358.7 647.956 1350.21 647.956H1321.06H1291.74H1279.18Z" fill="black"/>
</g>
<defs>
<clipPath id="clip0_157_385">
<rect width="2048" height="2048" fill="white"/>
</clipPath>
</defs>
</svg>
