<svg width="2048" height="2048" viewBox="0 0 2048 2048" fill="none" xmlns="http://www.w3.org/2000/svg">
<rect width="2048" height="2048" rx="256" fill="white"/>
<mask id="mask0_147_118" style="mask-type:alpha" maskUnits="userSpaceOnUse" x="256" y="0" width="1536" height="1536">
<rect x="256" width="1536" height="1536" fill="#D9D9D9"/>
</mask>
<g mask="url(#mask0_147_118)">
<path d="M689.072 1078.9C702.693 1078.9 714.235 1074.17 723.696 1064.7C733.157 1055.23 737.888 1043.75 737.888 1030.27C737.888 1016.79 733.157 1005.25 723.696 995.648C714.235 986.048 702.757 981.248 689.264 981.248C675.781 981.248 664.24 986.053 654.64 995.664C645.04 1005.26 640.24 1016.73 640.24 1030.06C640.24 1043.69 645.045 1055.23 654.656 1064.7C664.256 1074.17 675.728 1078.9 689.072 1078.9ZM648.864 847.104H729.264V461.616H648.864V847.104ZM983.792 1074.38H1399.14V993.968H983.792V1074.38ZM983.792 806.48H1399.14V726.08H983.792V806.48ZM983.792 542.032H1399.14V461.616H983.792V542.032ZM510.032 1312C482.523 1312 458.96 1302.19 439.344 1282.58C419.739 1262.96 409.936 1239.4 409.936 1211.89V324.112C409.936 296.603 419.739 273.04 439.344 253.424C458.96 233.808 482.523 224 510.032 224H1537.97C1565.48 224 1589.04 233.808 1608.66 253.424C1628.26 273.04 1638.06 296.603 1638.06 324.112V1211.89C1638.06 1239.4 1628.26 1262.96 1608.66 1282.58C1589.04 1302.19 1565.48 1312 1537.97 1312H510.032ZM510.032 1231.58H1537.97C1542.9 1231.58 1547.41 1229.54 1551.5 1225.44C1555.61 1221.33 1557.66 1216.82 1557.66 1211.89V324.112C1557.66 319.184 1555.61 314.667 1551.5 310.56C1547.41 306.464 1542.9 304.416 1537.97 304.416H510.032C505.104 304.416 500.592 306.464 496.496 310.56C492.389 314.667 490.336 319.184 490.336 324.112V1211.89C490.336 1216.82 492.389 1221.33 496.496 1225.44C500.592 1229.54 505.104 1231.58 510.032 1231.58Z" fill="#1C1B1F"/>
</g>
<path d="M654.868 1867C654.868 1867 654.868 1865.49 654.868 1862.48V1851.94V1841.46V1836.88C654.868 1836.88 654.868 1835.38 654.868 1832.36V1821.82V1811.35V1806.76C654.868 1806.76 654.868 1805.26 654.868 1802.25V1791.71V1781.23V1776.65C654.868 1776.65 654.868 1775.14 654.868 1772.13V1761.59V1751.11V1746.53C654.868 1746.53 654.868 1745.02 654.868 1742.01V1731.47V1720.99V1716.41C654.868 1716.41 654.868 1714.91 654.868 1711.89V1701.35V1690.87V1686.29C654.868 1686.29 654.868 1684.79 654.868 1681.78V1671.24V1660.76V1656.18C654.868 1656.18 654.868 1654.67 654.868 1651.66V1641.12V1630.64V1626.06C654.868 1626.06 654.868 1624.55 654.868 1621.54V1611V1600.52V1595.94C654.868 1595.94 654.868 1594.44 654.868 1591.42V1580.88V1570.4V1565.82C654.868 1565.82 654.868 1564.32 654.868 1561.31V1550.76V1540.29V1535.71H659.385H669.926H680.405H684.985C684.985 1535.71 684.985 1537.23 684.985 1540.29V1535.71H689.503H700.044H710.523H715.103C715.103 1535.71 715.103 1537.23 715.103 1540.29V1535.71H719.621H730.162H740.64H745.221C745.221 1535.71 745.221 1537.23 745.221 1540.29V1535.71H749.738H760.279H770.758H775.338C775.338 1535.71 775.338 1537.23 775.338 1540.29V1550.76V1561.31V1565.82C775.338 1565.82 773.811 1565.82 770.758 1565.82H760.279H749.738H745.221C745.221 1565.82 745.221 1564.32 745.221 1561.31V1565.82C745.221 1565.82 743.694 1565.82 740.64 1565.82H730.162H719.621H715.103C715.103 1565.82 715.103 1564.32 715.103 1561.31V1565.82C715.103 1565.82 713.576 1565.82 710.523 1565.82H700.044H689.503H684.985C684.985 1565.82 684.985 1564.32 684.985 1561.31V1565.82C684.985 1565.82 683.458 1565.82 680.405 1565.82H684.985C684.985 1565.82 684.985 1567.35 684.985 1570.4V1580.88V1591.42V1595.94C684.985 1595.94 683.458 1595.94 680.405 1595.94H684.985C684.985 1595.94 684.985 1597.47 684.985 1600.52V1611V1621.54V1626.06C684.985 1626.06 683.458 1626.06 680.405 1626.06H684.985C684.985 1626.06 684.985 1627.59 684.985 1630.64V1641.12V1651.66V1656.18C684.985 1656.18 683.458 1656.18 680.405 1656.18H684.985C684.985 1656.18 684.985 1657.7 684.985 1660.76V1671.24V1681.78V1686.29C684.985 1686.29 683.458 1686.29 680.405 1686.29H684.985C684.985 1686.29 684.985 1687.82 684.985 1690.87V1686.29H689.503H700.044H710.523H715.103C715.103 1686.29 715.103 1687.82 715.103 1690.87V1686.29H719.621H730.162H740.64H745.221C745.221 1686.29 745.221 1687.82 745.221 1690.87V1686.29H749.738H760.279H770.758H775.338C775.338 1686.29 775.338 1687.82 775.338 1690.87V1701.35V1711.89V1716.41C775.338 1716.41 773.811 1716.41 770.758 1716.41H760.279H749.738H745.221C745.221 1716.41 745.221 1714.91 745.221 1711.89V1716.41C745.221 1716.41 743.694 1716.41 740.64 1716.41H730.162H719.621H715.103C715.103 1716.41 715.103 1714.91 715.103 1711.89V1716.41C715.103 1716.41 713.576 1716.41 710.523 1716.41H700.044H689.503H684.985C684.985 1716.41 684.985 1714.91 684.985 1711.89V1716.41C684.985 1716.41 683.458 1716.41 680.405 1716.41H684.985C684.985 1716.41 684.985 1717.94 684.985 1720.99V1731.47V1742.01V1746.53C684.985 1746.53 683.458 1746.53 680.405 1746.53H684.985C684.985 1746.53 684.985 1748.06 684.985 1751.11V1761.59V1772.13V1776.65C684.985 1776.65 683.458 1776.65 680.405 1776.65H684.985C684.985 1776.65 684.985 1778.17 684.985 1781.23V1791.71V1802.25V1806.76C684.985 1806.76 683.458 1806.76 680.405 1806.76H684.985C684.985 1806.76 684.985 1808.29 684.985 1811.35V1821.82V1832.36V1836.88C684.985 1836.88 683.458 1836.88 680.405 1836.88H684.985C684.985 1836.88 684.985 1838.41 684.985 1841.46V1836.88H689.503H700.044H710.523H715.103C715.103 1836.88 715.103 1838.41 715.103 1841.46V1836.88H719.621H730.162H740.64H745.221C745.221 1836.88 745.221 1838.41 745.221 1841.46V1836.88H749.738H760.279H770.758H775.338C775.338 1836.88 775.338 1838.41 775.338 1841.46V1851.94V1862.48V1867C775.338 1867 773.811 1867 770.758 1867H760.279H749.738H745.221C745.221 1867 745.221 1865.49 745.221 1862.48V1867C745.221 1867 743.694 1867 740.64 1867H730.162H719.621H715.103C715.103 1867 715.103 1865.49 715.103 1862.48V1867C715.103 1867 713.576 1867 710.523 1867H700.044H689.503H684.985C684.985 1867 684.985 1865.49 684.985 1862.48V1867C684.985 1867 683.458 1867 680.405 1867H669.926H659.385H654.868ZM775.338 1836.88C775.338 1836.88 775.338 1835.38 775.338 1832.36V1821.82V1811.35V1806.76C775.338 1806.76 775.338 1805.26 775.338 1802.25V1791.71V1781.23V1776.65C775.338 1776.65 775.338 1775.14 775.338 1772.13V1761.59V1751.11V1746.53C775.338 1746.53 775.338 1745.02 775.338 1742.01V1731.47V1720.99V1716.41H779.856H790.397H800.876H805.456C805.456 1716.41 805.456 1717.94 805.456 1720.99V1731.47V1742.01V1746.53C805.456 1746.53 803.929 1746.53 800.876 1746.53H805.456C805.456 1746.53 805.456 1748.06 805.456 1751.11V1761.59V1772.13V1776.65C805.456 1776.65 803.929 1776.65 800.876 1776.65H805.456C805.456 1776.65 805.456 1778.17 805.456 1781.23V1791.71V1802.25V1806.76C805.456 1806.76 803.929 1806.76 800.876 1806.76H805.456C805.456 1806.76 805.456 1808.29 805.456 1811.35V1821.82V1832.36V1836.88C805.456 1836.88 803.929 1836.88 800.876 1836.88H790.397H779.856H775.338ZM775.338 1686.29C775.338 1686.29 775.338 1684.79 775.338 1681.78V1671.24V1660.76V1656.18C775.338 1656.18 775.338 1654.67 775.338 1651.66V1641.12V1630.64V1626.06C775.338 1626.06 775.338 1624.55 775.338 1621.54V1611V1600.52V1595.94C775.338 1595.94 775.338 1594.44 775.338 1591.42V1580.88V1570.4V1565.82H779.856H790.397H800.876H805.456C805.456 1565.82 805.456 1567.35 805.456 1570.4V1580.88V1591.42V1595.94C805.456 1595.94 803.929 1595.94 800.876 1595.94H805.456C805.456 1595.94 805.456 1597.47 805.456 1600.52V1611V1621.54V1626.06C805.456 1626.06 803.929 1626.06 800.876 1626.06H805.456C805.456 1626.06 805.456 1627.59 805.456 1630.64V1641.12V1651.66V1656.18C805.456 1656.18 803.929 1656.18 800.876 1656.18H805.456C805.456 1656.18 805.456 1657.7 805.456 1660.76V1671.24V1681.78V1686.29C805.456 1686.29 803.929 1686.29 800.876 1686.29H790.397H779.856H775.338ZM865.868 1867C865.868 1867 865.868 1865.49 865.868 1862.48V1851.94V1841.46V1836.88C865.868 1836.88 865.868 1835.38 865.868 1832.36V1821.82V1811.35V1806.76C865.868 1806.76 865.868 1805.26 865.868 1802.25V1791.71V1781.23V1776.65C865.868 1776.65 865.868 1775.14 865.868 1772.13V1761.59V1751.11V1746.53C865.868 1746.53 865.868 1745.02 865.868 1742.01V1731.47V1720.99V1716.41C865.868 1716.41 865.868 1714.91 865.868 1711.89V1701.35V1690.87V1686.29C865.868 1686.29 865.868 1684.79 865.868 1681.78V1671.24V1660.76V1656.18C865.868 1656.18 865.868 1654.67 865.868 1651.66V1641.12V1630.64V1626.06C865.868 1626.06 865.868 1624.55 865.868 1621.54V1611V1600.52V1595.94C865.868 1595.94 865.868 1594.44 865.868 1591.42V1580.88V1570.4V1565.82C865.868 1565.82 865.868 1564.32 865.868 1561.31V1550.76V1540.29V1535.71H870.385H880.926H891.405H895.985C895.985 1535.71 895.985 1537.23 895.985 1540.29V1550.76V1561.31V1565.82C895.985 1565.82 894.458 1565.82 891.405 1565.82H895.985C895.985 1565.82 895.985 1567.35 895.985 1570.4V1580.88V1591.42V1595.94C895.985 1595.94 894.458 1595.94 891.405 1595.94H895.985C895.985 1595.94 895.985 1597.47 895.985 1600.52V1611V1621.54V1626.06C895.985 1626.06 894.458 1626.06 891.405 1626.06H895.985C895.985 1626.06 895.985 1627.59 895.985 1630.64V1641.12V1651.66V1656.18C895.985 1656.18 894.458 1656.18 891.405 1656.18H895.985C895.985 1656.18 895.985 1657.7 895.985 1660.76V1671.24V1681.78V1686.29C895.985 1686.29 894.458 1686.29 891.405 1686.29H895.985C895.985 1686.29 895.985 1687.82 895.985 1690.87V1701.35V1711.89V1716.41C895.985 1716.41 894.458 1716.41 891.405 1716.41H895.985C895.985 1716.41 895.985 1717.94 895.985 1720.99V1731.47V1742.01V1746.53C895.985 1746.53 894.458 1746.53 891.405 1746.53H895.985C895.985 1746.53 895.985 1748.06 895.985 1751.11V1761.59V1772.13V1776.65C895.985 1776.65 894.458 1776.65 891.405 1776.65H895.985C895.985 1776.65 895.985 1778.17 895.985 1781.23V1791.71V1802.25V1806.76C895.985 1806.76 894.458 1806.76 891.405 1806.76H895.985C895.985 1806.76 895.985 1808.29 895.985 1811.35V1821.82V1832.36V1836.88C895.985 1836.88 894.458 1836.88 891.405 1836.88H895.985C895.985 1836.88 895.985 1838.41 895.985 1841.46V1836.88H900.503H911.044H921.523H926.103C926.103 1836.88 926.103 1838.41 926.103 1841.46V1836.88H930.621H941.162H951.64H956.221C956.221 1836.88 956.221 1838.41 956.221 1841.46V1836.88H960.738H971.279H981.758H986.338C986.338 1836.88 986.338 1838.41 986.338 1841.46V1851.94V1862.48V1867C986.338 1867 984.811 1867 981.758 1867H971.279H960.738H956.221C956.221 1867 956.221 1865.49 956.221 1862.48V1867C956.221 1867 954.694 1867 951.64 1867H941.162H930.621H926.103C926.103 1867 926.103 1865.49 926.103 1862.48V1867C926.103 1867 924.576 1867 921.523 1867H911.044H900.503H895.985C895.985 1867 895.985 1865.49 895.985 1862.48V1867C895.985 1867 894.458 1867 891.405 1867H880.926H870.385H865.868ZM1061.49 1867C1061.49 1867 1061.49 1865.49 1061.49 1862.48V1851.94V1841.46V1836.88H1066H1076.54H1087.02H1091.6C1091.6 1836.88 1091.6 1838.41 1091.6 1841.46V1836.88H1096.12H1106.66H1117.14H1121.72C1121.72 1836.88 1121.72 1838.41 1121.72 1841.46V1836.88H1126.24H1136.78H1147.26H1151.84C1151.84 1836.88 1151.84 1838.41 1151.84 1841.46V1851.94V1862.48V1867C1151.84 1867 1150.31 1867 1147.26 1867H1136.78H1126.24H1121.72C1121.72 1867 1121.72 1865.49 1121.72 1862.48V1867C1121.72 1867 1120.19 1867 1117.14 1867H1106.66H1096.12H1091.6C1091.6 1867 1091.6 1865.49 1091.6 1862.48V1867C1091.6 1867 1090.08 1867 1087.02 1867H1076.54H1066H1061.49ZM1031.37 1836.88C1031.37 1836.88 1031.37 1835.38 1031.37 1832.36V1821.82V1811.35V1806.76C1031.37 1806.76 1031.37 1805.26 1031.37 1802.25V1791.71V1781.23V1776.65C1031.37 1776.65 1031.37 1775.14 1031.37 1772.13V1761.59V1751.11V1746.53C1031.37 1746.53 1031.37 1745.02 1031.37 1742.01V1731.47V1720.99V1716.41C1031.37 1716.41 1031.37 1714.91 1031.37 1711.89V1701.35V1690.87V1686.29C1031.37 1686.29 1031.37 1684.79 1031.37 1681.78V1671.24V1660.76V1656.18C1031.37 1656.18 1031.37 1654.67 1031.37 1651.66V1641.12V1630.64V1626.06C1031.37 1626.06 1031.37 1624.55 1031.37 1621.54V1611V1600.52V1595.94C1031.37 1595.94 1031.37 1594.44 1031.37 1591.42V1580.88V1570.4V1565.82H1035.89H1046.43H1056.9H1061.49C1061.49 1565.82 1061.49 1567.35 1061.49 1570.4V1580.88V1591.42V1595.94C1061.49 1595.94 1059.96 1595.94 1056.9 1595.94H1061.49C1061.49 1595.94 1061.49 1597.47 1061.49 1600.52V1611V1621.54V1626.06C1061.49 1626.06 1059.96 1626.06 1056.9 1626.06H1061.49C1061.49 1626.06 1061.49 1627.59 1061.49 1630.64V1641.12V1651.66V1656.18C1061.49 1656.18 1059.96 1656.18 1056.9 1656.18H1061.49C1061.49 1656.18 1061.49 1657.7 1061.49 1660.76V1671.24V1681.78V1686.29C1061.49 1686.29 1059.96 1686.29 1056.9 1686.29H1061.49C1061.49 1686.29 1061.49 1687.82 1061.49 1690.87V1701.35V1711.89V1716.41C1061.49 1716.41 1059.96 1716.41 1056.9 1716.41H1061.49C1061.49 1716.41 1061.49 1717.94 1061.49 1720.99V1731.47V1742.01V1746.53C1061.49 1746.53 1059.96 1746.53 1056.9 1746.53H1061.49C1061.49 1746.53 1061.49 1748.06 1061.49 1751.11V1761.59V1772.13V1776.65C1061.49 1776.65 1059.96 1776.65 1056.9 1776.65H1061.49C1061.49 1776.65 1061.49 1778.17 1061.49 1781.23V1791.71V1802.25V1806.76C1061.49 1806.76 1059.96 1806.76 1056.9 1806.76H1061.49C1061.49 1806.76 1061.49 1808.29 1061.49 1811.35V1821.82V1832.36V1836.88C1061.49 1836.88 1059.96 1836.88 1056.9 1836.88H1046.43H1035.89H1031.37ZM1151.84 1836.88C1151.84 1836.88 1151.84 1835.38 1151.84 1832.36V1821.82V1811.35V1806.76C1151.84 1806.76 1151.84 1805.26 1151.84 1802.25V1791.71V1781.23V1776.65C1151.84 1776.65 1151.84 1775.14 1151.84 1772.13V1761.59V1751.11V1746.53C1151.84 1746.53 1151.84 1745.02 1151.84 1742.01V1731.47V1720.99V1716.41C1151.84 1716.41 1151.84 1714.91 1151.84 1711.89V1701.35V1690.87V1686.29C1151.84 1686.29 1151.84 1684.79 1151.84 1681.78V1671.24V1660.76V1656.18C1151.84 1656.18 1151.84 1654.67 1151.84 1651.66V1641.12V1630.64V1626.06C1151.84 1626.06 1151.84 1624.55 1151.84 1621.54V1611V1600.52V1595.94C1151.84 1595.94 1151.84 1594.44 1151.84 1591.42V1580.88V1570.4V1565.82H1156.36H1166.9H1177.38H1181.96C1181.96 1565.82 1181.96 1567.35 1181.96 1570.4V1580.88V1591.42V1595.94C1181.96 1595.94 1180.43 1595.94 1177.38 1595.94H1181.96C1181.96 1595.94 1181.96 1597.47 1181.96 1600.52V1611V1621.54V1626.06C1181.96 1626.06 1180.43 1626.06 1177.38 1626.06H1181.96C1181.96 1626.06 1181.96 1627.59 1181.96 1630.64V1641.12V1651.66V1656.18C1181.96 1656.18 1180.43 1656.18 1177.38 1656.18H1181.96C1181.96 1656.18 1181.96 1657.7 1181.96 1660.76V1671.24V1681.78V1686.29C1181.96 1686.29 1180.43 1686.29 1177.38 1686.29H1181.96C1181.96 1686.29 1181.96 1687.82 1181.96 1690.87V1701.35V1711.89V1716.41C1181.96 1716.41 1180.43 1716.41 1177.38 1716.41H1181.96C1181.96 1716.41 1181.96 1717.94 1181.96 1720.99V1731.47V1742.01V1746.53C1181.96 1746.53 1180.43 1746.53 1177.38 1746.53H1181.96C1181.96 1746.53 1181.96 1748.06 1181.96 1751.11V1761.59V1772.13V1776.65C1181.96 1776.65 1180.43 1776.65 1177.38 1776.65H1181.96C1181.96 1776.65 1181.96 1778.17 1181.96 1781.23V1791.71V1802.25V1806.76C1181.96 1806.76 1180.43 1806.76 1177.38 1806.76H1181.96C1181.96 1806.76 1181.96 1808.29 1181.96 1811.35V1821.82V1832.36V1836.88C1181.96 1836.88 1180.43 1836.88 1177.38 1836.88H1166.9H1156.36H1151.84ZM1061.49 1565.82C1061.49 1565.82 1061.49 1564.32 1061.49 1561.31V1550.76V1540.29V1535.71H1066H1076.54H1087.02H1091.6C1091.6 1535.71 1091.6 1537.23 1091.6 1540.29V1535.71H1096.12H1106.66H1117.14H1121.72C1121.72 1535.71 1121.72 1537.23 1121.72 1540.29V1535.71H1126.24H1136.78H1147.26H1151.84C1151.84 1535.71 1151.84 1537.23 1151.84 1540.29V1550.76V1561.31V1565.82C1151.84 1565.82 1150.31 1565.82 1147.26 1565.82H1136.78H1126.24H1121.72C1121.72 1565.82 1121.72 1564.32 1121.72 1561.31V1565.82C1121.72 1565.82 1120.19 1565.82 1117.14 1565.82H1106.66H1096.12H1091.6C1091.6 1565.82 1091.6 1564.32 1091.6 1561.31V1565.82C1091.6 1565.82 1090.08 1565.82 1087.02 1565.82H1076.54H1066H1061.49ZM1272.49 1867C1272.49 1867 1272.49 1865.49 1272.49 1862.48V1851.94V1841.46V1836.88H1277H1287.54H1298.02H1302.6C1302.6 1836.88 1302.6 1838.41 1302.6 1841.46V1836.88H1307.12H1317.66H1328.14H1332.72C1332.72 1836.88 1332.72 1838.41 1332.72 1841.46V1836.88H1337.24H1347.78H1358.26H1362.84C1362.84 1836.88 1362.84 1838.41 1362.84 1841.46V1851.94V1862.48V1867C1362.84 1867 1361.31 1867 1358.26 1867H1347.78H1337.24H1332.72C1332.72 1867 1332.72 1865.49 1332.72 1862.48V1867C1332.72 1867 1331.19 1867 1328.14 1867H1317.66H1307.12H1302.6C1302.6 1867 1302.6 1865.49 1302.6 1862.48V1867C1302.6 1867 1301.08 1867 1298.02 1867H1287.54H1277H1272.49ZM1242.37 1836.88C1242.37 1836.88 1242.37 1835.38 1242.37 1832.36V1821.82V1811.35V1806.76C1242.37 1806.76 1242.37 1805.26 1242.37 1802.25V1791.71V1781.23V1776.65C1242.37 1776.65 1242.37 1775.14 1242.37 1772.13V1761.59V1751.11V1746.53C1242.37 1746.53 1242.37 1745.02 1242.37 1742.01V1731.47V1720.99V1716.41C1242.37 1716.41 1242.37 1714.91 1242.37 1711.89V1701.35V1690.87V1686.29C1242.37 1686.29 1242.37 1684.79 1242.37 1681.78V1671.24V1660.76V1656.18C1242.37 1656.18 1242.37 1654.67 1242.37 1651.66V1641.12V1630.64V1626.06C1242.37 1626.06 1242.37 1624.55 1242.37 1621.54V1611V1600.52V1595.94C1242.37 1595.94 1242.37 1594.44 1242.37 1591.42V1580.88V1570.4V1565.82H1246.89H1257.43H1267.9H1272.49C1272.49 1565.82 1272.49 1567.35 1272.49 1570.4V1580.88V1591.42V1595.94C1272.49 1595.94 1270.96 1595.94 1267.9 1595.94H1272.49C1272.49 1595.94 1272.49 1597.47 1272.49 1600.52V1611V1621.54V1626.06C1272.49 1626.06 1270.96 1626.06 1267.9 1626.06H1272.49C1272.49 1626.06 1272.49 1627.59 1272.49 1630.64V1641.12V1651.66V1656.18C1272.49 1656.18 1270.96 1656.18 1267.9 1656.18H1272.49C1272.49 1656.18 1272.49 1657.7 1272.49 1660.76V1671.24V1681.78V1686.29C1272.49 1686.29 1270.96 1686.29 1267.9 1686.29H1272.49C1272.49 1686.29 1272.49 1687.82 1272.49 1690.87V1701.35V1711.89V1716.41C1272.49 1716.41 1270.96 1716.41 1267.9 1716.41H1272.49C1272.49 1716.41 1272.49 1717.94 1272.49 1720.99V1731.47V1742.01V1746.53C1272.49 1746.53 1270.96 1746.53 1267.9 1746.53H1272.49C1272.49 1746.53 1272.49 1748.06 1272.49 1751.11V1761.59V1772.13V1776.65C1272.49 1776.65 1270.96 1776.65 1267.9 1776.65H1272.49C1272.49 1776.65 1272.49 1778.17 1272.49 1781.23V1791.71V1802.25V1806.76C1272.49 1806.76 1270.96 1806.76 1267.9 1806.76H1272.49C1272.49 1806.76 1272.49 1808.29 1272.49 1811.35V1821.82V1832.36V1836.88C1272.49 1836.88 1270.96 1836.88 1267.9 1836.88H1257.43H1246.89H1242.37ZM1302.6 1746.53C1302.6 1746.53 1302.6 1745.02 1302.6 1742.01V1731.47V1720.99V1716.41H1307.12H1317.66H1328.14H1332.72C1332.72 1716.41 1332.72 1717.94 1332.72 1720.99V1716.41H1337.24H1347.78H1358.26H1362.84C1362.84 1716.41 1362.84 1717.94 1362.84 1720.99V1716.41H1367.36H1377.9H1388.38H1392.96C1392.96 1716.41 1392.96 1717.94 1392.96 1720.99V1731.47V1742.01V1746.53C1392.96 1746.53 1391.43 1746.53 1388.38 1746.53H1392.96C1392.96 1746.53 1392.96 1748.06 1392.96 1751.11V1761.59V1772.13V1776.65C1392.96 1776.65 1391.43 1776.65 1388.38 1776.65H1392.96C1392.96 1776.65 1392.96 1778.17 1392.96 1781.23V1791.71V1802.25V1806.76C1392.96 1806.76 1391.43 1806.76 1388.38 1806.76H1392.96C1392.96 1806.76 1392.96 1808.29 1392.96 1811.35V1821.82V1832.36V1836.88C1392.96 1836.88 1391.43 1836.88 1388.38 1836.88H1377.9H1367.36H1362.84C1362.84 1836.88 1362.84 1835.38 1362.84 1832.36V1821.82V1811.35V1806.76C1362.84 1806.76 1362.84 1805.26 1362.84 1802.25V1791.71V1781.23V1776.65C1362.84 1776.65 1362.84 1775.14 1362.84 1772.13V1761.59V1751.11V1746.53C1362.84 1746.53 1362.84 1745.02 1362.84 1742.01V1746.53C1362.84 1746.53 1361.31 1746.53 1358.26 1746.53H1347.78H1337.24H1332.72C1332.72 1746.53 1332.72 1745.02 1332.72 1742.01V1746.53C1332.72 1746.53 1331.19 1746.53 1328.14 1746.53H1317.66H1307.12H1302.6ZM1362.84 1656.18C1362.84 1656.18 1362.84 1654.67 1362.84 1651.66V1641.12V1630.64V1626.06C1362.84 1626.06 1362.84 1624.55 1362.84 1621.54V1611V1600.52V1595.94C1362.84 1595.94 1362.84 1594.44 1362.84 1591.42V1580.88V1570.4V1565.82H1367.36H1377.9H1388.38H1392.96C1392.96 1565.82 1392.96 1567.35 1392.96 1570.4V1580.88V1591.42V1595.94C1392.96 1595.94 1391.43 1595.94 1388.38 1595.94H1392.96C1392.96 1595.94 1392.96 1597.47 1392.96 1600.52V1611V1621.54V1626.06C1392.96 1626.06 1391.43 1626.06 1388.38 1626.06H1392.96C1392.96 1626.06 1392.96 1627.59 1392.96 1630.64V1641.12V1651.66V1656.18C1392.96 1656.18 1391.43 1656.18 1388.38 1656.18H1377.9H1367.36H1362.84ZM1272.49 1565.82C1272.49 1565.82 1272.49 1564.32 1272.49 1561.31V1550.76V1540.29V1535.71H1277H1287.54H1298.02H1302.6C1302.6 1535.71 1302.6 1537.23 1302.6 1540.29V1535.71H1307.12H1317.66H1328.14H1332.72C1332.72 1535.71 1332.72 1537.23 1332.72 1540.29V1535.71H1337.24H1347.78H1358.26H1362.84C1362.84 1535.71 1362.84 1537.23 1362.84 1540.29V1550.76V1561.31V1565.82C1362.84 1565.82 1361.31 1565.82 1358.26 1565.82H1347.78H1337.24H1332.72C1332.72 1565.82 1332.72 1564.32 1332.72 1561.31V1565.82C1332.72 1565.82 1331.19 1565.82 1328.14 1565.82H1317.66H1307.12H1302.6C1302.6 1565.82 1302.6 1564.32 1302.6 1561.31V1565.82C1302.6 1565.82 1301.08 1565.82 1298.02 1565.82H1287.54H1277H1272.49Z" fill="black"/>
</svg>
