<svg width="2048" height="2048" viewBox="0 0 2048 2048" fill="none" xmlns="http://www.w3.org/2000/svg">
<rect width="2048" height="2048" rx="256" fill="white"/>
<mask id="mask0_147_265" style="mask-type:alpha" maskUnits="userSpaceOnUse" x="256" y="0" width="1536" height="1536">
<rect x="256" width="1536" height="1536" fill="#D9D9D9"/>
</mask>
<g mask="url(#mask0_147_265)">
<path d="M824.864 1312C728.533 1312 646.976 1278.6 580.192 1211.81C513.397 1145.02 480 1063.47 480 967.136V568.864C480 472.533 513.397 390.976 580.192 324.192C646.976 257.397 728.533 224 824.864 224H1223.14C1319.47 224 1401.02 257.397 1467.81 324.192C1534.6 390.976 1568 472.533 1568 568.864V967.136C1568 1063.47 1534.6 1145.02 1467.81 1211.81C1401.02 1278.6 1319.47 1312 1223.14 1312H824.864ZM959.344 997.744L1321.18 635.904L1263.92 578.624L959.344 883.2L811.408 735.68L754.128 792.944L959.344 997.744ZM825.04 1231.58H1222.96C1295.94 1231.58 1358.29 1205.73 1410.02 1154.02C1461.73 1102.29 1487.58 1039.94 1487.58 966.96V569.04C1487.58 496.059 1461.73 433.707 1410.02 381.984C1358.29 330.272 1295.94 304.416 1222.96 304.416H825.04C752.059 304.416 689.707 330.272 637.984 381.984C586.272 433.707 560.416 496.059 560.416 569.04V966.96C560.416 1039.94 586.272 1102.29 637.984 1154.02C689.707 1205.73 752.059 1231.58 825.04 1231.58Z" fill="#1C1B1F"/>
</g>
<path d="M466.485 1867C466.485 1867 466.485 1865.49 466.485 1862.48V1851.94V1841.46V1836.88H471.003H481.544H492.023H496.603C496.603 1836.88 496.603 1838.41 496.603 1841.46V1836.88H501.121H511.662H522.14H526.721C526.721 1836.88 526.721 1838.41 526.721 1841.46V1836.88H531.238H541.779H552.258H556.838C556.838 1836.88 556.838 1838.41 556.838 1841.46V1851.94V1862.48V1867C556.838 1867 555.311 1867 552.258 1867H541.779H531.238H526.721C526.721 1867 526.721 1865.49 526.721 1862.48V1867C526.721 1867 525.194 1867 522.14 1867H511.662H501.121H496.603C496.603 1867 496.603 1865.49 496.603 1862.48V1867C496.603 1867 495.076 1867 492.023 1867H481.544H471.003H466.485ZM436.368 1836.88C436.368 1836.88 436.368 1835.38 436.368 1832.36V1821.82V1811.35V1806.76C436.368 1806.76 436.368 1805.26 436.368 1802.25V1791.71V1781.23V1776.65C436.368 1776.65 436.368 1775.14 436.368 1772.13V1761.59V1751.11V1746.53C436.368 1746.53 436.368 1745.02 436.368 1742.01V1731.47V1720.99V1716.41C436.368 1716.41 436.368 1714.91 436.368 1711.89V1701.35V1690.87V1686.29C436.368 1686.29 436.368 1684.79 436.368 1681.78V1671.24V1660.76V1656.18C436.368 1656.18 436.368 1654.67 436.368 1651.66V1641.12V1630.64V1626.06C436.368 1626.06 436.368 1624.55 436.368 1621.54V1611V1600.52V1595.94C436.368 1595.94 436.368 1594.44 436.368 1591.42V1580.88V1570.4V1565.82H440.885H451.426H461.905H466.485C466.485 1565.82 466.485 1567.35 466.485 1570.4V1580.88V1591.42V1595.94C466.485 1595.94 464.958 1595.94 461.905 1595.94H466.485C466.485 1595.94 466.485 1597.47 466.485 1600.52V1611V1621.54V1626.06C466.485 1626.06 464.958 1626.06 461.905 1626.06H466.485C466.485 1626.06 466.485 1627.59 466.485 1630.64V1641.12V1651.66V1656.18C466.485 1656.18 464.958 1656.18 461.905 1656.18H466.485C466.485 1656.18 466.485 1657.7 466.485 1660.76V1671.24V1681.78V1686.29C466.485 1686.29 464.958 1686.29 461.905 1686.29H466.485C466.485 1686.29 466.485 1687.82 466.485 1690.87V1701.35V1711.89V1716.41C466.485 1716.41 464.958 1716.41 461.905 1716.41H466.485C466.485 1716.41 466.485 1717.94 466.485 1720.99V1731.47V1742.01V1746.53C466.485 1746.53 464.958 1746.53 461.905 1746.53H466.485C466.485 1746.53 466.485 1748.06 466.485 1751.11V1761.59V1772.13V1776.65C466.485 1776.65 464.958 1776.65 461.905 1776.65H466.485C466.485 1776.65 466.485 1778.17 466.485 1781.23V1791.71V1802.25V1806.76C466.485 1806.76 464.958 1806.76 461.905 1806.76H466.485C466.485 1806.76 466.485 1808.29 466.485 1811.35V1821.82V1832.36V1836.88C466.485 1836.88 464.958 1836.88 461.905 1836.88H451.426H440.885H436.368ZM556.838 1836.88C556.838 1836.88 556.838 1835.38 556.838 1832.36V1821.82V1811.35V1806.76C556.838 1806.76 556.838 1805.26 556.838 1802.25V1791.71V1781.23V1776.65C556.838 1776.65 556.838 1775.14 556.838 1772.13V1761.59V1751.11V1746.53C556.838 1746.53 556.838 1745.02 556.838 1742.01V1731.47V1720.99V1716.41C556.838 1716.41 556.838 1714.91 556.838 1711.89V1701.35V1690.87V1686.29C556.838 1686.29 556.838 1684.79 556.838 1681.78V1671.24V1660.76V1656.18C556.838 1656.18 556.838 1654.67 556.838 1651.66V1641.12V1630.64V1626.06C556.838 1626.06 556.838 1624.55 556.838 1621.54V1611V1600.52V1595.94C556.838 1595.94 556.838 1594.44 556.838 1591.42V1580.88V1570.4V1565.82H561.356H571.897H582.376H586.956C586.956 1565.82 586.956 1567.35 586.956 1570.4V1580.88V1591.42V1595.94C586.956 1595.94 585.429 1595.94 582.376 1595.94H586.956C586.956 1595.94 586.956 1597.47 586.956 1600.52V1611V1621.54V1626.06C586.956 1626.06 585.429 1626.06 582.376 1626.06H586.956C586.956 1626.06 586.956 1627.59 586.956 1630.64V1641.12V1651.66V1656.18C586.956 1656.18 585.429 1656.18 582.376 1656.18H586.956C586.956 1656.18 586.956 1657.7 586.956 1660.76V1671.24V1681.78V1686.29C586.956 1686.29 585.429 1686.29 582.376 1686.29H586.956C586.956 1686.29 586.956 1687.82 586.956 1690.87V1701.35V1711.89V1716.41C586.956 1716.41 585.429 1716.41 582.376 1716.41H586.956C586.956 1716.41 586.956 1717.94 586.956 1720.99V1731.47V1742.01V1746.53C586.956 1746.53 585.429 1746.53 582.376 1746.53H586.956C586.956 1746.53 586.956 1748.06 586.956 1751.11V1761.59V1772.13V1776.65C586.956 1776.65 585.429 1776.65 582.376 1776.65H586.956C586.956 1776.65 586.956 1778.17 586.956 1781.23V1791.71V1802.25V1806.76C586.956 1806.76 585.429 1806.76 582.376 1806.76H586.956C586.956 1806.76 586.956 1808.29 586.956 1811.35V1821.82V1832.36V1836.88C586.956 1836.88 585.429 1836.88 582.376 1836.88H571.897H561.356H556.838ZM466.485 1565.82C466.485 1565.82 466.485 1564.32 466.485 1561.31V1550.76V1540.29V1535.71H471.003H481.544H492.023H496.603C496.603 1535.71 496.603 1537.23 496.603 1540.29V1535.71H501.121H511.662H522.14H526.721C526.721 1535.71 526.721 1537.23 526.721 1540.29V1535.71H531.238H541.779H552.258H556.838C556.838 1535.71 556.838 1537.23 556.838 1540.29V1550.76V1561.31V1565.82C556.838 1565.82 555.311 1565.82 552.258 1565.82H541.779H531.238H526.721C526.721 1565.82 526.721 1564.32 526.721 1561.31V1565.82C526.721 1565.82 525.194 1565.82 522.14 1565.82H511.662H501.121H496.603C496.603 1565.82 496.603 1564.32 496.603 1561.31V1565.82C496.603 1565.82 495.076 1565.82 492.023 1565.82H481.544H471.003H466.485ZM647.368 1867C647.368 1867 647.368 1865.49 647.368 1862.48C647.368 1859.43 647.368 1855.92 647.368 1851.94C647.368 1847.97 647.368 1844.47 647.368 1841.46C647.368 1838.41 647.368 1836.88 647.368 1836.88C647.368 1836.88 648.874 1836.88 651.885 1836.88C654.939 1836.88 658.453 1836.88 662.426 1836.88C666.4 1836.88 669.893 1836.88 672.905 1836.88C675.958 1836.88 677.485 1836.88 677.485 1836.88C677.485 1836.88 677.485 1838.41 677.485 1841.46C677.485 1844.47 677.485 1847.97 677.485 1851.94C677.485 1855.92 677.485 1859.43 677.485 1862.48C677.485 1865.49 677.485 1867 677.485 1867C677.485 1867 675.958 1867 672.905 1867C669.893 1867 666.4 1867 662.426 1867C658.453 1867 654.939 1867 651.885 1867C648.874 1867 647.368 1867 647.368 1867ZM647.368 1867C647.368 1867 647.368 1865.49 647.368 1862.48C647.368 1859.43 647.368 1855.92 647.368 1851.94C647.368 1847.97 647.368 1844.47 647.368 1841.46C647.368 1838.41 647.368 1836.88 647.368 1836.88C647.368 1836.88 648.874 1836.88 651.885 1836.88C654.939 1836.88 658.453 1836.88 662.426 1836.88C666.4 1836.88 669.893 1836.88 672.905 1836.88C675.958 1836.88 677.485 1836.88 677.485 1836.88C677.485 1836.88 677.485 1838.41 677.485 1841.46C677.485 1844.47 677.485 1847.97 677.485 1851.94C677.485 1855.92 677.485 1859.43 677.485 1862.48C677.485 1865.49 677.485 1867 677.485 1867C677.485 1867 675.958 1867 672.905 1867C669.893 1867 666.4 1867 662.426 1867C658.453 1867 654.939 1867 651.885 1867C648.874 1867 647.368 1867 647.368 1867ZM647.368 1867C647.368 1867 647.368 1865.49 647.368 1862.48C647.368 1859.43 647.368 1855.92 647.368 1851.94C647.368 1847.97 647.368 1844.47 647.368 1841.46C647.368 1838.41 647.368 1836.88 647.368 1836.88C647.368 1836.88 648.874 1836.88 651.885 1836.88C654.939 1836.88 658.453 1836.88 662.426 1836.88C666.4 1836.88 669.893 1836.88 672.905 1836.88C675.958 1836.88 677.485 1836.88 677.485 1836.88C677.485 1836.88 677.485 1838.41 677.485 1841.46C677.485 1844.47 677.485 1847.97 677.485 1851.94C677.485 1855.92 677.485 1859.43 677.485 1862.48C677.485 1865.49 677.485 1867 677.485 1867C677.485 1867 675.958 1867 672.905 1867C669.893 1867 666.4 1867 662.426 1867C658.453 1867 654.939 1867 651.885 1867C648.874 1867 647.368 1867 647.368 1867ZM647.368 1867C647.368 1867 647.368 1865.49 647.368 1862.48C647.368 1859.43 647.368 1855.92 647.368 1851.94C647.368 1847.97 647.368 1844.47 647.368 1841.46C647.368 1838.41 647.368 1836.88 647.368 1836.88C647.368 1836.88 648.874 1836.88 651.885 1836.88C654.939 1836.88 658.453 1836.88 662.426 1836.88C666.4 1836.88 669.893 1836.88 672.905 1836.88C675.958 1836.88 677.485 1836.88 677.485 1836.88C677.485 1836.88 677.485 1838.41 677.485 1841.46C677.485 1844.47 677.485 1847.97 677.485 1851.94C677.485 1855.92 677.485 1859.43 677.485 1862.48C677.485 1865.49 677.485 1867 677.485 1867C677.485 1867 675.958 1867 672.905 1867C669.893 1867 666.4 1867 662.426 1867C658.453 1867 654.939 1867 651.885 1867C648.874 1867 647.368 1867 647.368 1867ZM647.368 1836.88C647.368 1836.88 647.368 1835.38 647.368 1832.36C647.368 1829.31 647.368 1825.8 647.368 1821.82C647.368 1817.85 647.368 1814.36 647.368 1811.35C647.368 1808.29 647.368 1806.76 647.368 1806.76C647.368 1806.76 648.874 1806.76 651.885 1806.76C654.939 1806.76 658.453 1806.76 662.426 1806.76C666.4 1806.76 669.893 1806.76 672.905 1806.76C675.958 1806.76 677.485 1806.76 677.485 1806.76C677.485 1806.76 677.485 1808.29 677.485 1811.35C677.485 1814.36 677.485 1817.85 677.485 1821.82C677.485 1825.8 677.485 1829.31 677.485 1832.36C677.485 1835.38 677.485 1836.88 677.485 1836.88C677.485 1836.88 675.958 1836.88 672.905 1836.88C669.893 1836.88 666.4 1836.88 662.426 1836.88C658.453 1836.88 654.939 1836.88 651.885 1836.88C648.874 1836.88 647.368 1836.88 647.368 1836.88ZM647.368 1836.88C647.368 1836.88 647.368 1835.38 647.368 1832.36C647.368 1829.31 647.368 1825.8 647.368 1821.82C647.368 1817.85 647.368 1814.36 647.368 1811.35C647.368 1808.29 647.368 1806.76 647.368 1806.76C647.368 1806.76 648.874 1806.76 651.885 1806.76C654.939 1806.76 658.453 1806.76 662.426 1806.76C666.4 1806.76 669.893 1806.76 672.905 1806.76C675.958 1806.76 677.485 1806.76 677.485 1806.76C677.485 1806.76 677.485 1808.29 677.485 1811.35C677.485 1814.36 677.485 1817.85 677.485 1821.82C677.485 1825.8 677.485 1829.31 677.485 1832.36C677.485 1835.38 677.485 1836.88 677.485 1836.88C677.485 1836.88 675.958 1836.88 672.905 1836.88C669.893 1836.88 666.4 1836.88 662.426 1836.88C658.453 1836.88 654.939 1836.88 651.885 1836.88C648.874 1836.88 647.368 1836.88 647.368 1836.88ZM647.368 1836.88C647.368 1836.88 647.368 1835.38 647.368 1832.36C647.368 1829.31 647.368 1825.8 647.368 1821.82C647.368 1817.85 647.368 1814.36 647.368 1811.35C647.368 1808.29 647.368 1806.76 647.368 1806.76C647.368 1806.76 648.874 1806.76 651.885 1806.76C654.939 1806.76 658.453 1806.76 662.426 1806.76C666.4 1806.76 669.893 1806.76 672.905 1806.76C675.958 1806.76 677.485 1806.76 677.485 1806.76C677.485 1806.76 677.485 1808.29 677.485 1811.35C677.485 1814.36 677.485 1817.85 677.485 1821.82C677.485 1825.8 677.485 1829.31 677.485 1832.36C677.485 1835.38 677.485 1836.88 677.485 1836.88C677.485 1836.88 675.958 1836.88 672.905 1836.88C669.893 1836.88 666.4 1836.88 662.426 1836.88C658.453 1836.88 654.939 1836.88 651.885 1836.88C648.874 1836.88 647.368 1836.88 647.368 1836.88ZM647.368 1836.88C647.368 1836.88 647.368 1835.38 647.368 1832.36C647.368 1829.31 647.368 1825.8 647.368 1821.82C647.368 1817.85 647.368 1814.36 647.368 1811.35C647.368 1808.29 647.368 1806.76 647.368 1806.76C647.368 1806.76 648.874 1806.76 651.885 1806.76C654.939 1806.76 658.453 1806.76 662.426 1806.76C666.4 1806.76 669.893 1806.76 672.905 1806.76C675.958 1806.76 677.485 1806.76 677.485 1806.76C677.485 1806.76 677.485 1808.29 677.485 1811.35C677.485 1814.36 677.485 1817.85 677.485 1821.82C677.485 1825.8 677.485 1829.31 677.485 1832.36C677.485 1835.38 677.485 1836.88 677.485 1836.88C677.485 1836.88 675.958 1836.88 672.905 1836.88C669.893 1836.88 666.4 1836.88 662.426 1836.88C658.453 1836.88 654.939 1836.88 651.885 1836.88C648.874 1836.88 647.368 1836.88 647.368 1836.88ZM647.368 1806.76C647.368 1806.76 647.368 1805.26 647.368 1802.25C647.368 1799.19 647.368 1795.68 647.368 1791.71C647.368 1787.73 647.368 1784.24 647.368 1781.23C647.368 1778.17 647.368 1776.65 647.368 1776.65C647.368 1776.65 648.874 1776.65 651.885 1776.65C654.939 1776.65 658.453 1776.65 662.426 1776.65C666.4 1776.65 669.893 1776.65 672.905 1776.65C675.958 1776.65 677.485 1776.65 677.485 1776.65C677.485 1776.65 677.485 1778.17 677.485 1781.23C677.485 1784.24 677.485 1787.73 677.485 1791.71C677.485 1795.68 677.485 1799.19 677.485 1802.25C677.485 1805.26 677.485 1806.76 677.485 1806.76C677.485 1806.76 675.958 1806.76 672.905 1806.76C669.893 1806.76 666.4 1806.76 662.426 1806.76C658.453 1806.76 654.939 1806.76 651.885 1806.76C648.874 1806.76 647.368 1806.76 647.368 1806.76ZM647.368 1806.76C647.368 1806.76 647.368 1805.26 647.368 1802.25C647.368 1799.19 647.368 1795.68 647.368 1791.71C647.368 1787.73 647.368 1784.24 647.368 1781.23C647.368 1778.17 647.368 1776.65 647.368 1776.65C647.368 1776.65 648.874 1776.65 651.885 1776.65C654.939 1776.65 658.453 1776.65 662.426 1776.65C666.4 1776.65 669.893 1776.65 672.905 1776.65C675.958 1776.65 677.485 1776.65 677.485 1776.65C677.485 1776.65 677.485 1778.17 677.485 1781.23C677.485 1784.24 677.485 1787.73 677.485 1791.71C677.485 1795.68 677.485 1799.19 677.485 1802.25C677.485 1805.26 677.485 1806.76 677.485 1806.76C677.485 1806.76 675.958 1806.76 672.905 1806.76C669.893 1806.76 666.4 1806.76 662.426 1806.76C658.453 1806.76 654.939 1806.76 651.885 1806.76C648.874 1806.76 647.368 1806.76 647.368 1806.76ZM647.368 1806.76C647.368 1806.76 647.368 1805.26 647.368 1802.25C647.368 1799.19 647.368 1795.68 647.368 1791.71C647.368 1787.73 647.368 1784.24 647.368 1781.23C647.368 1778.17 647.368 1776.65 647.368 1776.65C647.368 1776.65 648.874 1776.65 651.885 1776.65C654.939 1776.65 658.453 1776.65 662.426 1776.65C666.4 1776.65 669.893 1776.65 672.905 1776.65C675.958 1776.65 677.485 1776.65 677.485 1776.65C677.485 1776.65 677.485 1778.17 677.485 1781.23C677.485 1784.24 677.485 1787.73 677.485 1791.71C677.485 1795.68 677.485 1799.19 677.485 1802.25C677.485 1805.26 677.485 1806.76 677.485 1806.76C677.485 1806.76 675.958 1806.76 672.905 1806.76C669.893 1806.76 666.4 1806.76 662.426 1806.76C658.453 1806.76 654.939 1806.76 651.885 1806.76C648.874 1806.76 647.368 1806.76 647.368 1806.76ZM647.368 1806.76C647.368 1806.76 647.368 1805.26 647.368 1802.25C647.368 1799.19 647.368 1795.68 647.368 1791.71C647.368 1787.73 647.368 1784.24 647.368 1781.23C647.368 1778.17 647.368 1776.65 647.368 1776.65C647.368 1776.65 648.874 1776.65 651.885 1776.65C654.939 1776.65 658.453 1776.65 662.426 1776.65C666.4 1776.65 669.893 1776.65 672.905 1776.65C675.958 1776.65 677.485 1776.65 677.485 1776.65C677.485 1776.65 677.485 1778.17 677.485 1781.23C677.485 1784.24 677.485 1787.73 677.485 1791.71C677.485 1795.68 677.485 1799.19 677.485 1802.25C677.485 1805.26 677.485 1806.76 677.485 1806.76C677.485 1806.76 675.958 1806.76 672.905 1806.76C669.893 1806.76 666.4 1806.76 662.426 1806.76C658.453 1806.76 654.939 1806.76 651.885 1806.76C648.874 1806.76 647.368 1806.76 647.368 1806.76ZM647.368 1776.65C647.368 1776.65 647.368 1775.14 647.368 1772.13C647.368 1769.08 647.368 1765.56 647.368 1761.59C647.368 1757.61 647.368 1754.12 647.368 1751.11C647.368 1748.06 647.368 1746.53 647.368 1746.53C647.368 1746.53 648.874 1746.53 651.885 1746.53C654.939 1746.53 658.453 1746.53 662.426 1746.53C666.4 1746.53 669.893 1746.53 672.905 1746.53C675.958 1746.53 677.485 1746.53 677.485 1746.53C677.485 1746.53 677.485 1748.06 677.485 1751.11C677.485 1754.12 677.485 1757.61 677.485 1761.59C677.485 1765.56 677.485 1769.08 677.485 1772.13C677.485 1775.14 677.485 1776.65 677.485 1776.65C677.485 1776.65 675.958 1776.65 672.905 1776.65C669.893 1776.65 666.4 1776.65 662.426 1776.65C658.453 1776.65 654.939 1776.65 651.885 1776.65C648.874 1776.65 647.368 1776.65 647.368 1776.65ZM647.368 1776.65C647.368 1776.65 647.368 1775.14 647.368 1772.13C647.368 1769.08 647.368 1765.56 647.368 1761.59C647.368 1757.61 647.368 1754.12 647.368 1751.11C647.368 1748.06 647.368 1746.53 647.368 1746.53C647.368 1746.53 648.874 1746.53 651.885 1746.53C654.939 1746.53 658.453 1746.53 662.426 1746.53C666.4 1746.53 669.893 1746.53 672.905 1746.53C675.958 1746.53 677.485 1746.53 677.485 1746.53C677.485 1746.53 677.485 1748.06 677.485 1751.11C677.485 1754.12 677.485 1757.61 677.485 1761.59C677.485 1765.56 677.485 1769.08 677.485 1772.13C677.485 1775.14 677.485 1776.65 677.485 1776.65C677.485 1776.65 675.958 1776.65 672.905 1776.65C669.893 1776.65 666.4 1776.65 662.426 1776.65C658.453 1776.65 654.939 1776.65 651.885 1776.65C648.874 1776.65 647.368 1776.65 647.368 1776.65ZM647.368 1776.65C647.368 1776.65 647.368 1775.14 647.368 1772.13C647.368 1769.08 647.368 1765.56 647.368 1761.59C647.368 1757.61 647.368 1754.12 647.368 1751.11C647.368 1748.06 647.368 1746.53 647.368 1746.53C647.368 1746.53 648.874 1746.53 651.885 1746.53C654.939 1746.53 658.453 1746.53 662.426 1746.53C666.4 1746.53 669.893 1746.53 672.905 1746.53C675.958 1746.53 677.485 1746.53 677.485 1746.53C677.485 1746.53 677.485 1748.06 677.485 1751.11C677.485 1754.12 677.485 1757.61 677.485 1761.59C677.485 1765.56 677.485 1769.08 677.485 1772.13C677.485 1775.14 677.485 1776.65 677.485 1776.65C677.485 1776.65 675.958 1776.65 672.905 1776.65C669.893 1776.65 666.4 1776.65 662.426 1776.65C658.453 1776.65 654.939 1776.65 651.885 1776.65C648.874 1776.65 647.368 1776.65 647.368 1776.65ZM647.368 1776.65C647.368 1776.65 647.368 1775.14 647.368 1772.13C647.368 1769.08 647.368 1765.56 647.368 1761.59C647.368 1757.61 647.368 1754.12 647.368 1751.11C647.368 1748.06 647.368 1746.53 647.368 1746.53C647.368 1746.53 648.874 1746.53 651.885 1746.53C654.939 1746.53 658.453 1746.53 662.426 1746.53C666.4 1746.53 669.893 1746.53 672.905 1746.53C675.958 1746.53 677.485 1746.53 677.485 1746.53C677.485 1746.53 677.485 1748.06 677.485 1751.11C677.485 1754.12 677.485 1757.61 677.485 1761.59C677.485 1765.56 677.485 1769.08 677.485 1772.13C677.485 1775.14 677.485 1776.65 677.485 1776.65C677.485 1776.65 675.958 1776.65 672.905 1776.65C669.893 1776.65 666.4 1776.65 662.426 1776.65C658.453 1776.65 654.939 1776.65 651.885 1776.65C648.874 1776.65 647.368 1776.65 647.368 1776.65ZM647.368 1746.53C647.368 1746.53 647.368 1745.02 647.368 1742.01C647.368 1738.96 647.368 1735.44 647.368 1731.47C647.368 1727.5 647.368 1724 647.368 1720.99C647.368 1717.94 647.368 1716.41 647.368 1716.41C647.368 1716.41 648.874 1716.41 651.885 1716.41C654.939 1716.41 658.453 1716.41 662.426 1716.41C666.4 1716.41 669.893 1716.41 672.905 1716.41C675.958 1716.41 677.485 1716.41 677.485 1716.41C677.485 1716.41 677.485 1717.94 677.485 1720.99C677.485 1724 677.485 1727.5 677.485 1731.47C677.485 1735.44 677.485 1738.96 677.485 1742.01C677.485 1745.02 677.485 1746.53 677.485 1746.53C677.485 1746.53 675.958 1746.53 672.905 1746.53C669.893 1746.53 666.4 1746.53 662.426 1746.53C658.453 1746.53 654.939 1746.53 651.885 1746.53C648.874 1746.53 647.368 1746.53 647.368 1746.53ZM647.368 1746.53C647.368 1746.53 647.368 1745.02 647.368 1742.01C647.368 1738.96 647.368 1735.44 647.368 1731.47C647.368 1727.5 647.368 1724 647.368 1720.99C647.368 1717.94 647.368 1716.41 647.368 1716.41C647.368 1716.41 648.874 1716.41 651.885 1716.41C654.939 1716.41 658.453 1716.41 662.426 1716.41C666.4 1716.41 669.893 1716.41 672.905 1716.41C675.958 1716.41 677.485 1716.41 677.485 1716.41C677.485 1716.41 677.485 1717.94 677.485 1720.99C677.485 1724 677.485 1727.5 677.485 1731.47C677.485 1735.44 677.485 1738.96 677.485 1742.01C677.485 1745.02 677.485 1746.53 677.485 1746.53C677.485 1746.53 675.958 1746.53 672.905 1746.53C669.893 1746.53 666.4 1746.53 662.426 1746.53C658.453 1746.53 654.939 1746.53 651.885 1746.53C648.874 1746.53 647.368 1746.53 647.368 1746.53ZM647.368 1746.53C647.368 1746.53 647.368 1745.02 647.368 1742.01C647.368 1738.96 647.368 1735.44 647.368 1731.47C647.368 1727.5 647.368 1724 647.368 1720.99C647.368 1717.94 647.368 1716.41 647.368 1716.41C647.368 1716.41 648.874 1716.41 651.885 1716.41C654.939 1716.41 658.453 1716.41 662.426 1716.41C666.4 1716.41 669.893 1716.41 672.905 1716.41C675.958 1716.41 677.485 1716.41 677.485 1716.41C677.485 1716.41 677.485 1717.94 677.485 1720.99C677.485 1724 677.485 1727.5 677.485 1731.47C677.485 1735.44 677.485 1738.96 677.485 1742.01C677.485 1745.02 677.485 1746.53 677.485 1746.53C677.485 1746.53 675.958 1746.53 672.905 1746.53C669.893 1746.53 666.4 1746.53 662.426 1746.53C658.453 1746.53 654.939 1746.53 651.885 1746.53C648.874 1746.53 647.368 1746.53 647.368 1746.53ZM647.368 1746.53C647.368 1746.53 647.368 1745.02 647.368 1742.01C647.368 1738.96 647.368 1735.44 647.368 1731.47C647.368 1727.5 647.368 1724 647.368 1720.99C647.368 1717.94 647.368 1716.41 647.368 1716.41C647.368 1716.41 648.874 1716.41 651.885 1716.41C654.939 1716.41 658.453 1716.41 662.426 1716.41C666.4 1716.41 669.893 1716.41 672.905 1716.41C675.958 1716.41 677.485 1716.41 677.485 1716.41C677.485 1716.41 677.485 1717.94 677.485 1720.99C677.485 1724 677.485 1727.5 677.485 1731.47C677.485 1735.44 677.485 1738.96 677.485 1742.01C677.485 1745.02 677.485 1746.53 677.485 1746.53C677.485 1746.53 675.958 1746.53 672.905 1746.53C669.893 1746.53 666.4 1746.53 662.426 1746.53C658.453 1746.53 654.939 1746.53 651.885 1746.53C648.874 1746.53 647.368 1746.53 647.368 1746.53ZM677.485 1746.53C677.485 1746.53 677.485 1745.02 677.485 1742.01C677.485 1738.96 677.485 1735.44 677.485 1731.47C677.485 1727.5 677.485 1724 677.485 1720.99C677.485 1717.94 677.485 1716.41 677.485 1716.41C677.485 1716.41 678.991 1716.41 682.003 1716.41C685.057 1716.41 688.57 1716.41 692.544 1716.41C696.518 1716.41 700.011 1716.41 703.023 1716.41C706.076 1716.41 707.603 1716.41 707.603 1716.41C707.603 1716.41 707.603 1717.94 707.603 1720.99C707.603 1724 707.603 1727.5 707.603 1731.47C707.603 1735.44 707.603 1738.96 707.603 1742.01C707.603 1745.02 707.603 1746.53 707.603 1746.53C707.603 1746.53 706.076 1746.53 703.023 1746.53C700.011 1746.53 696.518 1746.53 692.544 1746.53C688.57 1746.53 685.057 1746.53 682.003 1746.53C678.991 1746.53 677.485 1746.53 677.485 1746.53ZM677.485 1746.53C677.485 1746.53 677.485 1745.02 677.485 1742.01C677.485 1738.96 677.485 1735.44 677.485 1731.47C677.485 1727.5 677.485 1724 677.485 1720.99C677.485 1717.94 677.485 1716.41 677.485 1716.41C677.485 1716.41 678.991 1716.41 682.003 1716.41C685.057 1716.41 688.57 1716.41 692.544 1716.41C696.518 1716.41 700.011 1716.41 703.023 1716.41C706.076 1716.41 707.603 1716.41 707.603 1716.41C707.603 1716.41 707.603 1717.94 707.603 1720.99C707.603 1724 707.603 1727.5 707.603 1731.47C707.603 1735.44 707.603 1738.96 707.603 1742.01C707.603 1745.02 707.603 1746.53 707.603 1746.53C707.603 1746.53 706.076 1746.53 703.023 1746.53C700.011 1746.53 696.518 1746.53 692.544 1746.53C688.57 1746.53 685.057 1746.53 682.003 1746.53C678.991 1746.53 677.485 1746.53 677.485 1746.53ZM677.485 1746.53C677.485 1746.53 677.485 1745.02 677.485 1742.01C677.485 1738.96 677.485 1735.44 677.485 1731.47C677.485 1727.5 677.485 1724 677.485 1720.99C677.485 1717.94 677.485 1716.41 677.485 1716.41C677.485 1716.41 678.991 1716.41 682.003 1716.41C685.057 1716.41 688.57 1716.41 692.544 1716.41C696.518 1716.41 700.011 1716.41 703.023 1716.41C706.076 1716.41 707.603 1716.41 707.603 1716.41C707.603 1716.41 707.603 1717.94 707.603 1720.99C707.603 1724 707.603 1727.5 707.603 1731.47C707.603 1735.44 707.603 1738.96 707.603 1742.01C707.603 1745.02 707.603 1746.53 707.603 1746.53C707.603 1746.53 706.076 1746.53 703.023 1746.53C700.011 1746.53 696.518 1746.53 692.544 1746.53C688.57 1746.53 685.057 1746.53 682.003 1746.53C678.991 1746.53 677.485 1746.53 677.485 1746.53ZM677.485 1746.53C677.485 1746.53 677.485 1745.02 677.485 1742.01C677.485 1738.96 677.485 1735.44 677.485 1731.47C677.485 1727.5 677.485 1724 677.485 1720.99C677.485 1717.94 677.485 1716.41 677.485 1716.41C677.485 1716.41 678.991 1716.41 682.003 1716.41C685.057 1716.41 688.57 1716.41 692.544 1716.41C696.518 1716.41 700.011 1716.41 703.023 1716.41C706.076 1716.41 707.603 1716.41 707.603 1716.41C707.603 1716.41 707.603 1717.94 707.603 1720.99C707.603 1724 707.603 1727.5 707.603 1731.47C707.603 1735.44 707.603 1738.96 707.603 1742.01C707.603 1745.02 707.603 1746.53 707.603 1746.53C707.603 1746.53 706.076 1746.53 703.023 1746.53C700.011 1746.53 696.518 1746.53 692.544 1746.53C688.57 1746.53 685.057 1746.53 682.003 1746.53C678.991 1746.53 677.485 1746.53 677.485 1746.53ZM707.603 1746.53C707.603 1746.53 707.603 1745.02 707.603 1742.01C707.603 1738.96 707.603 1735.44 707.603 1731.47C707.603 1727.5 707.603 1724 707.603 1720.99C707.603 1717.94 707.603 1716.41 707.603 1716.41C707.603 1716.41 709.109 1716.41 712.121 1716.41C715.174 1716.41 718.688 1716.41 722.662 1716.41C726.636 1716.41 730.128 1716.41 733.14 1716.41C736.194 1716.41 737.721 1716.41 737.721 1716.41C737.721 1716.41 737.721 1717.94 737.721 1720.99C737.721 1724 737.721 1727.5 737.721 1731.47C737.721 1735.44 737.721 1738.96 737.721 1742.01C737.721 1745.02 737.721 1746.53 737.721 1746.53C737.721 1746.53 736.194 1746.53 733.14 1746.53C730.128 1746.53 726.636 1746.53 722.662 1746.53C718.688 1746.53 715.174 1746.53 712.121 1746.53C709.109 1746.53 707.603 1746.53 707.603 1746.53ZM707.603 1746.53C707.603 1746.53 707.603 1745.02 707.603 1742.01C707.603 1738.96 707.603 1735.44 707.603 1731.47C707.603 1727.5 707.603 1724 707.603 1720.99C707.603 1717.94 707.603 1716.41 707.603 1716.41C707.603 1716.41 709.109 1716.41 712.121 1716.41C715.174 1716.41 718.688 1716.41 722.662 1716.41C726.636 1716.41 730.128 1716.41 733.14 1716.41C736.194 1716.41 737.721 1716.41 737.721 1716.41C737.721 1716.41 737.721 1717.94 737.721 1720.99C737.721 1724 737.721 1727.5 737.721 1731.47C737.721 1735.44 737.721 1738.96 737.721 1742.01C737.721 1745.02 737.721 1746.53 737.721 1746.53C737.721 1746.53 736.194 1746.53 733.14 1746.53C730.128 1746.53 726.636 1746.53 722.662 1746.53C718.688 1746.53 715.174 1746.53 712.121 1746.53C709.109 1746.53 707.603 1746.53 707.603 1746.53ZM707.603 1746.53C707.603 1746.53 707.603 1745.02 707.603 1742.01C707.603 1738.96 707.603 1735.44 707.603 1731.47C707.603 1727.5 707.603 1724 707.603 1720.99C707.603 1717.94 707.603 1716.41 707.603 1716.41C707.603 1716.41 709.109 1716.41 712.121 1716.41C715.174 1716.41 718.688 1716.41 722.662 1716.41C726.636 1716.41 730.128 1716.41 733.14 1716.41C736.194 1716.41 737.721 1716.41 737.721 1716.41C737.721 1716.41 737.721 1717.94 737.721 1720.99C737.721 1724 737.721 1727.5 737.721 1731.47C737.721 1735.44 737.721 1738.96 737.721 1742.01C737.721 1745.02 737.721 1746.53 737.721 1746.53C737.721 1746.53 736.194 1746.53 733.14 1746.53C730.128 1746.53 726.636 1746.53 722.662 1746.53C718.688 1746.53 715.174 1746.53 712.121 1746.53C709.109 1746.53 707.603 1746.53 707.603 1746.53ZM707.603 1746.53C707.603 1746.53 707.603 1745.02 707.603 1742.01C707.603 1738.96 707.603 1735.44 707.603 1731.47C707.603 1727.5 707.603 1724 707.603 1720.99C707.603 1717.94 707.603 1716.41 707.603 1716.41C707.603 1716.41 709.109 1716.41 712.121 1716.41C715.174 1716.41 718.688 1716.41 722.662 1716.41C726.636 1716.41 730.128 1716.41 733.14 1716.41C736.194 1716.41 737.721 1716.41 737.721 1716.41C737.721 1716.41 737.721 1717.94 737.721 1720.99C737.721 1724 737.721 1727.5 737.721 1731.47C737.721 1735.44 737.721 1738.96 737.721 1742.01C737.721 1745.02 737.721 1746.53 737.721 1746.53C737.721 1746.53 736.194 1746.53 733.14 1746.53C730.128 1746.53 726.636 1746.53 722.662 1746.53C718.688 1746.53 715.174 1746.53 712.121 1746.53C709.109 1746.53 707.603 1746.53 707.603 1746.53ZM737.721 1746.53C737.721 1746.53 737.721 1745.02 737.721 1742.01C737.721 1738.96 737.721 1735.44 737.721 1731.47C737.721 1727.5 737.721 1724 737.721 1720.99C737.721 1717.94 737.721 1716.41 737.721 1716.41C737.721 1716.41 739.226 1716.41 742.238 1716.41C745.292 1716.41 748.806 1716.41 752.779 1716.41C756.753 1716.41 760.246 1716.41 763.258 1716.41C766.311 1716.41 767.838 1716.41 767.838 1716.41C767.838 1716.41 767.838 1717.94 767.838 1720.99C767.838 1724 767.838 1727.5 767.838 1731.47C767.838 1735.44 767.838 1738.96 767.838 1742.01C767.838 1745.02 767.838 1746.53 767.838 1746.53C767.838 1746.53 766.311 1746.53 763.258 1746.53C760.246 1746.53 756.753 1746.53 752.779 1746.53C748.806 1746.53 745.292 1746.53 742.238 1746.53C739.226 1746.53 737.721 1746.53 737.721 1746.53ZM737.721 1746.53C737.721 1746.53 737.721 1745.02 737.721 1742.01C737.721 1738.96 737.721 1735.44 737.721 1731.47C737.721 1727.5 737.721 1724 737.721 1720.99C737.721 1717.94 737.721 1716.41 737.721 1716.41C737.721 1716.41 739.226 1716.41 742.238 1716.41C745.292 1716.41 748.806 1716.41 752.779 1716.41C756.753 1716.41 760.246 1716.41 763.258 1716.41C766.311 1716.41 767.838 1716.41 767.838 1716.41C767.838 1716.41 767.838 1717.94 767.838 1720.99C767.838 1724 767.838 1727.5 767.838 1731.47C767.838 1735.44 767.838 1738.96 767.838 1742.01C767.838 1745.02 767.838 1746.53 767.838 1746.53C767.838 1746.53 766.311 1746.53 763.258 1746.53C760.246 1746.53 756.753 1746.53 752.779 1746.53C748.806 1746.53 745.292 1746.53 742.238 1746.53C739.226 1746.53 737.721 1746.53 737.721 1746.53ZM737.721 1746.53C737.721 1746.53 737.721 1745.02 737.721 1742.01C737.721 1738.96 737.721 1735.44 737.721 1731.47C737.721 1727.5 737.721 1724 737.721 1720.99C737.721 1717.94 737.721 1716.41 737.721 1716.41C737.721 1716.41 739.226 1716.41 742.238 1716.41C745.292 1716.41 748.806 1716.41 752.779 1716.41C756.753 1716.41 760.246 1716.41 763.258 1716.41C766.311 1716.41 767.838 1716.41 767.838 1716.41C767.838 1716.41 767.838 1717.94 767.838 1720.99C767.838 1724 767.838 1727.5 767.838 1731.47C767.838 1735.44 767.838 1738.96 767.838 1742.01C767.838 1745.02 767.838 1746.53 767.838 1746.53C767.838 1746.53 766.311 1746.53 763.258 1746.53C760.246 1746.53 756.753 1746.53 752.779 1746.53C748.806 1746.53 745.292 1746.53 742.238 1746.53C739.226 1746.53 737.721 1746.53 737.721 1746.53ZM737.721 1746.53C737.721 1746.53 737.721 1745.02 737.721 1742.01C737.721 1738.96 737.721 1735.44 737.721 1731.47C737.721 1727.5 737.721 1724 737.721 1720.99C737.721 1717.94 737.721 1716.41 737.721 1716.41C737.721 1716.41 739.226 1716.41 742.238 1716.41C745.292 1716.41 748.806 1716.41 752.779 1716.41C756.753 1716.41 760.246 1716.41 763.258 1716.41C766.311 1716.41 767.838 1716.41 767.838 1716.41C767.838 1716.41 767.838 1717.94 767.838 1720.99C767.838 1724 767.838 1727.5 767.838 1731.47C767.838 1735.44 767.838 1738.96 767.838 1742.01C767.838 1745.02 767.838 1746.53 767.838 1746.53C767.838 1746.53 766.311 1746.53 763.258 1746.53C760.246 1746.53 756.753 1746.53 752.779 1746.53C748.806 1746.53 745.292 1746.53 742.238 1746.53C739.226 1746.53 737.721 1746.53 737.721 1746.53ZM647.368 1716.41C647.368 1716.41 647.368 1714.91 647.368 1711.89C647.368 1708.84 647.368 1705.33 647.368 1701.35C647.368 1697.38 647.368 1693.89 647.368 1690.87C647.368 1687.82 647.368 1686.29 647.368 1686.29C647.368 1686.29 648.874 1686.29 651.885 1686.29C654.939 1686.29 658.453 1686.29 662.426 1686.29C666.4 1686.29 669.893 1686.29 672.905 1686.29C675.958 1686.29 677.485 1686.29 677.485 1686.29C677.485 1686.29 677.485 1687.82 677.485 1690.87C677.485 1693.89 677.485 1697.38 677.485 1701.35C677.485 1705.33 677.485 1708.84 677.485 1711.89C677.485 1714.91 677.485 1716.41 677.485 1716.41C677.485 1716.41 675.958 1716.41 672.905 1716.41C669.893 1716.41 666.4 1716.41 662.426 1716.41C658.453 1716.41 654.939 1716.41 651.885 1716.41C648.874 1716.41 647.368 1716.41 647.368 1716.41ZM647.368 1716.41C647.368 1716.41 647.368 1714.91 647.368 1711.89C647.368 1708.84 647.368 1705.33 647.368 1701.35C647.368 1697.38 647.368 1693.89 647.368 1690.87C647.368 1687.82 647.368 1686.29 647.368 1686.29C647.368 1686.29 648.874 1686.29 651.885 1686.29C654.939 1686.29 658.453 1686.29 662.426 1686.29C666.4 1686.29 669.893 1686.29 672.905 1686.29C675.958 1686.29 677.485 1686.29 677.485 1686.29C677.485 1686.29 677.485 1687.82 677.485 1690.87C677.485 1693.89 677.485 1697.38 677.485 1701.35C677.485 1705.33 677.485 1708.84 677.485 1711.89C677.485 1714.91 677.485 1716.41 677.485 1716.41C677.485 1716.41 675.958 1716.41 672.905 1716.41C669.893 1716.41 666.4 1716.41 662.426 1716.41C658.453 1716.41 654.939 1716.41 651.885 1716.41C648.874 1716.41 647.368 1716.41 647.368 1716.41ZM647.368 1716.41C647.368 1716.41 647.368 1714.91 647.368 1711.89C647.368 1708.84 647.368 1705.33 647.368 1701.35C647.368 1697.38 647.368 1693.89 647.368 1690.87C647.368 1687.82 647.368 1686.29 647.368 1686.29C647.368 1686.29 648.874 1686.29 651.885 1686.29C654.939 1686.29 658.453 1686.29 662.426 1686.29C666.4 1686.29 669.893 1686.29 672.905 1686.29C675.958 1686.29 677.485 1686.29 677.485 1686.29C677.485 1686.29 677.485 1687.82 677.485 1690.87C677.485 1693.89 677.485 1697.38 677.485 1701.35C677.485 1705.33 677.485 1708.84 677.485 1711.89C677.485 1714.91 677.485 1716.41 677.485 1716.41C677.485 1716.41 675.958 1716.41 672.905 1716.41C669.893 1716.41 666.4 1716.41 662.426 1716.41C658.453 1716.41 654.939 1716.41 651.885 1716.41C648.874 1716.41 647.368 1716.41 647.368 1716.41ZM647.368 1716.41C647.368 1716.41 647.368 1714.91 647.368 1711.89C647.368 1708.84 647.368 1705.33 647.368 1701.35C647.368 1697.38 647.368 1693.89 647.368 1690.87C647.368 1687.82 647.368 1686.29 647.368 1686.29C647.368 1686.29 648.874 1686.29 651.885 1686.29C654.939 1686.29 658.453 1686.29 662.426 1686.29C666.4 1686.29 669.893 1686.29 672.905 1686.29C675.958 1686.29 677.485 1686.29 677.485 1686.29C677.485 1686.29 677.485 1687.82 677.485 1690.87C677.485 1693.89 677.485 1697.38 677.485 1701.35C677.485 1705.33 677.485 1708.84 677.485 1711.89C677.485 1714.91 677.485 1716.41 677.485 1716.41C677.485 1716.41 675.958 1716.41 672.905 1716.41C669.893 1716.41 666.4 1716.41 662.426 1716.41C658.453 1716.41 654.939 1716.41 651.885 1716.41C648.874 1716.41 647.368 1716.41 647.368 1716.41ZM767.838 1716.41C767.838 1716.41 767.838 1714.91 767.838 1711.89C767.838 1708.84 767.838 1705.33 767.838 1701.35C767.838 1697.38 767.838 1693.89 767.838 1690.87C767.838 1687.82 767.838 1686.29 767.838 1686.29C767.838 1686.29 769.344 1686.29 772.356 1686.29C775.409 1686.29 778.923 1686.29 782.897 1686.29C786.871 1686.29 790.364 1686.29 793.376 1686.29C796.429 1686.29 797.956 1686.29 797.956 1686.29C797.956 1686.29 797.956 1687.82 797.956 1690.87C797.956 1693.89 797.956 1697.38 797.956 1701.35C797.956 1705.33 797.956 1708.84 797.956 1711.89C797.956 1714.91 797.956 1716.41 797.956 1716.41C797.956 1716.41 796.429 1716.41 793.376 1716.41C790.364 1716.41 786.871 1716.41 782.897 1716.41C778.923 1716.41 775.409 1716.41 772.356 1716.41C769.344 1716.41 767.838 1716.41 767.838 1716.41ZM767.838 1716.41C767.838 1716.41 767.838 1714.91 767.838 1711.89C767.838 1708.84 767.838 1705.33 767.838 1701.35C767.838 1697.38 767.838 1693.89 767.838 1690.87C767.838 1687.82 767.838 1686.29 767.838 1686.29C767.838 1686.29 769.344 1686.29 772.356 1686.29C775.409 1686.29 778.923 1686.29 782.897 1686.29C786.871 1686.29 790.364 1686.29 793.376 1686.29C796.429 1686.29 797.956 1686.29 797.956 1686.29C797.956 1686.29 797.956 1687.82 797.956 1690.87C797.956 1693.89 797.956 1697.38 797.956 1701.35C797.956 1705.33 797.956 1708.84 797.956 1711.89C797.956 1714.91 797.956 1716.41 797.956 1716.41C797.956 1716.41 796.429 1716.41 793.376 1716.41C790.364 1716.41 786.871 1716.41 782.897 1716.41C778.923 1716.41 775.409 1716.41 772.356 1716.41C769.344 1716.41 767.838 1716.41 767.838 1716.41ZM767.838 1716.41C767.838 1716.41 767.838 1714.91 767.838 1711.89C767.838 1708.84 767.838 1705.33 767.838 1701.35C767.838 1697.38 767.838 1693.89 767.838 1690.87C767.838 1687.82 767.838 1686.29 767.838 1686.29C767.838 1686.29 769.344 1686.29 772.356 1686.29C775.409 1686.29 778.923 1686.29 782.897 1686.29C786.871 1686.29 790.364 1686.29 793.376 1686.29C796.429 1686.29 797.956 1686.29 797.956 1686.29C797.956 1686.29 797.956 1687.82 797.956 1690.87C797.956 1693.89 797.956 1697.38 797.956 1701.35C797.956 1705.33 797.956 1708.84 797.956 1711.89C797.956 1714.91 797.956 1716.41 797.956 1716.41C797.956 1716.41 796.429 1716.41 793.376 1716.41C790.364 1716.41 786.871 1716.41 782.897 1716.41C778.923 1716.41 775.409 1716.41 772.356 1716.41C769.344 1716.41 767.838 1716.41 767.838 1716.41ZM767.838 1716.41C767.838 1716.41 767.838 1714.91 767.838 1711.89C767.838 1708.84 767.838 1705.33 767.838 1701.35C767.838 1697.38 767.838 1693.89 767.838 1690.87C767.838 1687.82 767.838 1686.29 767.838 1686.29C767.838 1686.29 769.344 1686.29 772.356 1686.29C775.409 1686.29 778.923 1686.29 782.897 1686.29C786.871 1686.29 790.364 1686.29 793.376 1686.29C796.429 1686.29 797.956 1686.29 797.956 1686.29C797.956 1686.29 797.956 1687.82 797.956 1690.87C797.956 1693.89 797.956 1697.38 797.956 1701.35C797.956 1705.33 797.956 1708.84 797.956 1711.89C797.956 1714.91 797.956 1716.41 797.956 1716.41C797.956 1716.41 796.429 1716.41 793.376 1716.41C790.364 1716.41 786.871 1716.41 782.897 1716.41C778.923 1716.41 775.409 1716.41 772.356 1716.41C769.344 1716.41 767.838 1716.41 767.838 1716.41ZM647.368 1686.29C647.368 1686.29 647.368 1684.79 647.368 1681.78C647.368 1678.72 647.368 1675.21 647.368 1671.24C647.368 1667.26 647.368 1663.77 647.368 1660.76C647.368 1657.7 647.368 1656.18 647.368 1656.18C647.368 1656.18 648.874 1656.18 651.885 1656.18C654.939 1656.18 658.453 1656.18 662.426 1656.18C666.4 1656.18 669.893 1656.18 672.905 1656.18C675.958 1656.18 677.485 1656.18 677.485 1656.18C677.485 1656.18 677.485 1657.7 677.485 1660.76C677.485 1663.77 677.485 1667.26 677.485 1671.24C677.485 1675.21 677.485 1678.72 677.485 1681.78C677.485 1684.79 677.485 1686.29 677.485 1686.29C677.485 1686.29 675.958 1686.29 672.905 1686.29C669.893 1686.29 666.4 1686.29 662.426 1686.29C658.453 1686.29 654.939 1686.29 651.885 1686.29C648.874 1686.29 647.368 1686.29 647.368 1686.29ZM647.368 1686.29C647.368 1686.29 647.368 1684.79 647.368 1681.78C647.368 1678.72 647.368 1675.21 647.368 1671.24C647.368 1667.26 647.368 1663.77 647.368 1660.76C647.368 1657.7 647.368 1656.18 647.368 1656.18C647.368 1656.18 648.874 1656.18 651.885 1656.18C654.939 1656.18 658.453 1656.18 662.426 1656.18C666.4 1656.18 669.893 1656.18 672.905 1656.18C675.958 1656.18 677.485 1656.18 677.485 1656.18C677.485 1656.18 677.485 1657.7 677.485 1660.76C677.485 1663.77 677.485 1667.26 677.485 1671.24C677.485 1675.21 677.485 1678.72 677.485 1681.78C677.485 1684.79 677.485 1686.29 677.485 1686.29C677.485 1686.29 675.958 1686.29 672.905 1686.29C669.893 1686.29 666.4 1686.29 662.426 1686.29C658.453 1686.29 654.939 1686.29 651.885 1686.29C648.874 1686.29 647.368 1686.29 647.368 1686.29ZM647.368 1686.29C647.368 1686.29 647.368 1684.79 647.368 1681.78C647.368 1678.72 647.368 1675.21 647.368 1671.24C647.368 1667.26 647.368 1663.77 647.368 1660.76C647.368 1657.7 647.368 1656.18 647.368 1656.18C647.368 1656.18 648.874 1656.18 651.885 1656.18C654.939 1656.18 658.453 1656.18 662.426 1656.18C666.4 1656.18 669.893 1656.18 672.905 1656.18C675.958 1656.18 677.485 1656.18 677.485 1656.18C677.485 1656.18 677.485 1657.7 677.485 1660.76C677.485 1663.77 677.485 1667.26 677.485 1671.24C677.485 1675.21 677.485 1678.72 677.485 1681.78C677.485 1684.79 677.485 1686.29 677.485 1686.29C677.485 1686.29 675.958 1686.29 672.905 1686.29C669.893 1686.29 666.4 1686.29 662.426 1686.29C658.453 1686.29 654.939 1686.29 651.885 1686.29C648.874 1686.29 647.368 1686.29 647.368 1686.29ZM647.368 1686.29C647.368 1686.29 647.368 1684.79 647.368 1681.78C647.368 1678.72 647.368 1675.21 647.368 1671.24C647.368 1667.26 647.368 1663.77 647.368 1660.76C647.368 1657.7 647.368 1656.18 647.368 1656.18C647.368 1656.18 648.874 1656.18 651.885 1656.18C654.939 1656.18 658.453 1656.18 662.426 1656.18C666.4 1656.18 669.893 1656.18 672.905 1656.18C675.958 1656.18 677.485 1656.18 677.485 1656.18C677.485 1656.18 677.485 1657.7 677.485 1660.76C677.485 1663.77 677.485 1667.26 677.485 1671.24C677.485 1675.21 677.485 1678.72 677.485 1681.78C677.485 1684.79 677.485 1686.29 677.485 1686.29C677.485 1686.29 675.958 1686.29 672.905 1686.29C669.893 1686.29 666.4 1686.29 662.426 1686.29C658.453 1686.29 654.939 1686.29 651.885 1686.29C648.874 1686.29 647.368 1686.29 647.368 1686.29ZM767.838 1686.29C767.838 1686.29 767.838 1684.79 767.838 1681.78C767.838 1678.72 767.838 1675.21 767.838 1671.24C767.838 1667.26 767.838 1663.77 767.838 1660.76C767.838 1657.7 767.838 1656.18 767.838 1656.18C767.838 1656.18 769.344 1656.18 772.356 1656.18C775.409 1656.18 778.923 1656.18 782.897 1656.18C786.871 1656.18 790.364 1656.18 793.376 1656.18C796.429 1656.18 797.956 1656.18 797.956 1656.18C797.956 1656.18 797.956 1657.7 797.956 1660.76C797.956 1663.77 797.956 1667.26 797.956 1671.24C797.956 1675.21 797.956 1678.72 797.956 1681.78C797.956 1684.79 797.956 1686.29 797.956 1686.29C797.956 1686.29 796.429 1686.29 793.376 1686.29C790.364 1686.29 786.871 1686.29 782.897 1686.29C778.923 1686.29 775.409 1686.29 772.356 1686.29C769.344 1686.29 767.838 1686.29 767.838 1686.29ZM767.838 1686.29C767.838 1686.29 767.838 1684.79 767.838 1681.78C767.838 1678.72 767.838 1675.21 767.838 1671.24C767.838 1667.26 767.838 1663.77 767.838 1660.76C767.838 1657.7 767.838 1656.18 767.838 1656.18C767.838 1656.18 769.344 1656.18 772.356 1656.18C775.409 1656.18 778.923 1656.18 782.897 1656.18C786.871 1656.18 790.364 1656.18 793.376 1656.18C796.429 1656.18 797.956 1656.18 797.956 1656.18C797.956 1656.18 797.956 1657.7 797.956 1660.76C797.956 1663.77 797.956 1667.26 797.956 1671.24C797.956 1675.21 797.956 1678.72 797.956 1681.78C797.956 1684.79 797.956 1686.29 797.956 1686.29C797.956 1686.29 796.429 1686.29 793.376 1686.29C790.364 1686.29 786.871 1686.29 782.897 1686.29C778.923 1686.29 775.409 1686.29 772.356 1686.29C769.344 1686.29 767.838 1686.29 767.838 1686.29ZM767.838 1686.29C767.838 1686.29 767.838 1684.79 767.838 1681.78C767.838 1678.72 767.838 1675.21 767.838 1671.24C767.838 1667.26 767.838 1663.77 767.838 1660.76C767.838 1657.7 767.838 1656.18 767.838 1656.18C767.838 1656.18 769.344 1656.18 772.356 1656.18C775.409 1656.18 778.923 1656.18 782.897 1656.18C786.871 1656.18 790.364 1656.18 793.376 1656.18C796.429 1656.18 797.956 1656.18 797.956 1656.18C797.956 1656.18 797.956 1657.7 797.956 1660.76C797.956 1663.77 797.956 1667.26 797.956 1671.24C797.956 1675.21 797.956 1678.72 797.956 1681.78C797.956 1684.79 797.956 1686.29 797.956 1686.29C797.956 1686.29 796.429 1686.29 793.376 1686.29C790.364 1686.29 786.871 1686.29 782.897 1686.29C778.923 1686.29 775.409 1686.29 772.356 1686.29C769.344 1686.29 767.838 1686.29 767.838 1686.29ZM767.838 1686.29C767.838 1686.29 767.838 1684.79 767.838 1681.78C767.838 1678.72 767.838 1675.21 767.838 1671.24C767.838 1667.26 767.838 1663.77 767.838 1660.76C767.838 1657.7 767.838 1656.18 767.838 1656.18C767.838 1656.18 769.344 1656.18 772.356 1656.18C775.409 1656.18 778.923 1656.18 782.897 1656.18C786.871 1656.18 790.364 1656.18 793.376 1656.18C796.429 1656.18 797.956 1656.18 797.956 1656.18C797.956 1656.18 797.956 1657.7 797.956 1660.76C797.956 1663.77 797.956 1667.26 797.956 1671.24C797.956 1675.21 797.956 1678.72 797.956 1681.78C797.956 1684.79 797.956 1686.29 797.956 1686.29C797.956 1686.29 796.429 1686.29 793.376 1686.29C790.364 1686.29 786.871 1686.29 782.897 1686.29C778.923 1686.29 775.409 1686.29 772.356 1686.29C769.344 1686.29 767.838 1686.29 767.838 1686.29ZM647.368 1656.18C647.368 1656.18 647.368 1654.67 647.368 1651.66C647.368 1648.61 647.368 1645.09 647.368 1641.12C647.368 1637.14 647.368 1633.65 647.368 1630.64C647.368 1627.59 647.368 1626.06 647.368 1626.06C647.368 1626.06 648.874 1626.06 651.885 1626.06C654.939 1626.06 658.453 1626.06 662.426 1626.06C666.4 1626.06 669.893 1626.06 672.905 1626.06C675.958 1626.06 677.485 1626.06 677.485 1626.06C677.485 1626.06 677.485 1627.59 677.485 1630.64C677.485 1633.65 677.485 1637.14 677.485 1641.12C677.485 1645.09 677.485 1648.61 677.485 1651.66C677.485 1654.67 677.485 1656.18 677.485 1656.18C677.485 1656.18 675.958 1656.18 672.905 1656.18C669.893 1656.18 666.4 1656.18 662.426 1656.18C658.453 1656.18 654.939 1656.18 651.885 1656.18C648.874 1656.18 647.368 1656.18 647.368 1656.18ZM647.368 1656.18C647.368 1656.18 647.368 1654.67 647.368 1651.66C647.368 1648.61 647.368 1645.09 647.368 1641.12C647.368 1637.14 647.368 1633.65 647.368 1630.64C647.368 1627.59 647.368 1626.06 647.368 1626.06C647.368 1626.06 648.874 1626.06 651.885 1626.06C654.939 1626.06 658.453 1626.06 662.426 1626.06C666.4 1626.06 669.893 1626.06 672.905 1626.06C675.958 1626.06 677.485 1626.06 677.485 1626.06C677.485 1626.06 677.485 1627.59 677.485 1630.64C677.485 1633.65 677.485 1637.14 677.485 1641.12C677.485 1645.09 677.485 1648.61 677.485 1651.66C677.485 1654.67 677.485 1656.18 677.485 1656.18C677.485 1656.18 675.958 1656.18 672.905 1656.18C669.893 1656.18 666.4 1656.18 662.426 1656.18C658.453 1656.18 654.939 1656.18 651.885 1656.18C648.874 1656.18 647.368 1656.18 647.368 1656.18ZM647.368 1656.18C647.368 1656.18 647.368 1654.67 647.368 1651.66C647.368 1648.61 647.368 1645.09 647.368 1641.12C647.368 1637.14 647.368 1633.65 647.368 1630.64C647.368 1627.59 647.368 1626.06 647.368 1626.06C647.368 1626.06 648.874 1626.06 651.885 1626.06C654.939 1626.06 658.453 1626.06 662.426 1626.06C666.4 1626.06 669.893 1626.06 672.905 1626.06C675.958 1626.06 677.485 1626.06 677.485 1626.06C677.485 1626.06 677.485 1627.59 677.485 1630.64C677.485 1633.65 677.485 1637.14 677.485 1641.12C677.485 1645.09 677.485 1648.61 677.485 1651.66C677.485 1654.67 677.485 1656.18 677.485 1656.18C677.485 1656.18 675.958 1656.18 672.905 1656.18C669.893 1656.18 666.4 1656.18 662.426 1656.18C658.453 1656.18 654.939 1656.18 651.885 1656.18C648.874 1656.18 647.368 1656.18 647.368 1656.18ZM647.368 1656.18C647.368 1656.18 647.368 1654.67 647.368 1651.66C647.368 1648.61 647.368 1645.09 647.368 1641.12C647.368 1637.14 647.368 1633.65 647.368 1630.64C647.368 1627.59 647.368 1626.06 647.368 1626.06C647.368 1626.06 648.874 1626.06 651.885 1626.06C654.939 1626.06 658.453 1626.06 662.426 1626.06C666.4 1626.06 669.893 1626.06 672.905 1626.06C675.958 1626.06 677.485 1626.06 677.485 1626.06C677.485 1626.06 677.485 1627.59 677.485 1630.64C677.485 1633.65 677.485 1637.14 677.485 1641.12C677.485 1645.09 677.485 1648.61 677.485 1651.66C677.485 1654.67 677.485 1656.18 677.485 1656.18C677.485 1656.18 675.958 1656.18 672.905 1656.18C669.893 1656.18 666.4 1656.18 662.426 1656.18C658.453 1656.18 654.939 1656.18 651.885 1656.18C648.874 1656.18 647.368 1656.18 647.368 1656.18ZM767.838 1656.18C767.838 1656.18 767.838 1654.67 767.838 1651.66C767.838 1648.61 767.838 1645.09 767.838 1641.12C767.838 1637.14 767.838 1633.65 767.838 1630.64C767.838 1627.59 767.838 1626.06 767.838 1626.06C767.838 1626.06 769.344 1626.06 772.356 1626.06C775.409 1626.06 778.923 1626.06 782.897 1626.06C786.871 1626.06 790.364 1626.06 793.376 1626.06C796.429 1626.06 797.956 1626.06 797.956 1626.06C797.956 1626.06 797.956 1627.59 797.956 1630.64C797.956 1633.65 797.956 1637.14 797.956 1641.12C797.956 1645.09 797.956 1648.61 797.956 1651.66C797.956 1654.67 797.956 1656.18 797.956 1656.18C797.956 1656.18 796.429 1656.18 793.376 1656.18C790.364 1656.18 786.871 1656.18 782.897 1656.18C778.923 1656.18 775.409 1656.18 772.356 1656.18C769.344 1656.18 767.838 1656.18 767.838 1656.18ZM767.838 1656.18C767.838 1656.18 767.838 1654.67 767.838 1651.66C767.838 1648.61 767.838 1645.09 767.838 1641.12C767.838 1637.14 767.838 1633.65 767.838 1630.64C767.838 1627.59 767.838 1626.06 767.838 1626.06C767.838 1626.06 769.344 1626.06 772.356 1626.06C775.409 1626.06 778.923 1626.06 782.897 1626.06C786.871 1626.06 790.364 1626.06 793.376 1626.06C796.429 1626.06 797.956 1626.06 797.956 1626.06C797.956 1626.06 797.956 1627.59 797.956 1630.64C797.956 1633.65 797.956 1637.14 797.956 1641.12C797.956 1645.09 797.956 1648.61 797.956 1651.66C797.956 1654.67 797.956 1656.18 797.956 1656.18C797.956 1656.18 796.429 1656.18 793.376 1656.18C790.364 1656.18 786.871 1656.18 782.897 1656.18C778.923 1656.18 775.409 1656.18 772.356 1656.18C769.344 1656.18 767.838 1656.18 767.838 1656.18ZM767.838 1656.18C767.838 1656.18 767.838 1654.67 767.838 1651.66C767.838 1648.61 767.838 1645.09 767.838 1641.12C767.838 1637.14 767.838 1633.65 767.838 1630.64C767.838 1627.59 767.838 1626.06 767.838 1626.06C767.838 1626.06 769.344 1626.06 772.356 1626.06C775.409 1626.06 778.923 1626.06 782.897 1626.06C786.871 1626.06 790.364 1626.06 793.376 1626.06C796.429 1626.06 797.956 1626.06 797.956 1626.06C797.956 1626.06 797.956 1627.59 797.956 1630.64C797.956 1633.65 797.956 1637.14 797.956 1641.12C797.956 1645.09 797.956 1648.61 797.956 1651.66C797.956 1654.67 797.956 1656.18 797.956 1656.18C797.956 1656.18 796.429 1656.18 793.376 1656.18C790.364 1656.18 786.871 1656.18 782.897 1656.18C778.923 1656.18 775.409 1656.18 772.356 1656.18C769.344 1656.18 767.838 1656.18 767.838 1656.18ZM767.838 1656.18C767.838 1656.18 767.838 1654.67 767.838 1651.66C767.838 1648.61 767.838 1645.09 767.838 1641.12C767.838 1637.14 767.838 1633.65 767.838 1630.64C767.838 1627.59 767.838 1626.06 767.838 1626.06C767.838 1626.06 769.344 1626.06 772.356 1626.06C775.409 1626.06 778.923 1626.06 782.897 1626.06C786.871 1626.06 790.364 1626.06 793.376 1626.06C796.429 1626.06 797.956 1626.06 797.956 1626.06C797.956 1626.06 797.956 1627.59 797.956 1630.64C797.956 1633.65 797.956 1637.14 797.956 1641.12C797.956 1645.09 797.956 1648.61 797.956 1651.66C797.956 1654.67 797.956 1656.18 797.956 1656.18C797.956 1656.18 796.429 1656.18 793.376 1656.18C790.364 1656.18 786.871 1656.18 782.897 1656.18C778.923 1656.18 775.409 1656.18 772.356 1656.18C769.344 1656.18 767.838 1656.18 767.838 1656.18ZM647.368 1626.06C647.368 1626.06 647.368 1624.55 647.368 1621.54C647.368 1618.49 647.368 1614.97 647.368 1611C647.368 1607.03 647.368 1603.53 647.368 1600.52C647.368 1597.47 647.368 1595.94 647.368 1595.94C647.368 1595.94 648.874 1595.94 651.885 1595.94C654.939 1595.94 658.453 1595.94 662.426 1595.94C666.4 1595.94 669.893 1595.94 672.905 1595.94C675.958 1595.94 677.485 1595.94 677.485 1595.94C677.485 1595.94 677.485 1597.47 677.485 1600.52C677.485 1603.53 677.485 1607.03 677.485 1611C677.485 1614.97 677.485 1618.49 677.485 1621.54C677.485 1624.55 677.485 1626.06 677.485 1626.06C677.485 1626.06 675.958 1626.06 672.905 1626.06C669.893 1626.06 666.4 1626.06 662.426 1626.06C658.453 1626.06 654.939 1626.06 651.885 1626.06C648.874 1626.06 647.368 1626.06 647.368 1626.06ZM647.368 1626.06C647.368 1626.06 647.368 1624.55 647.368 1621.54C647.368 1618.49 647.368 1614.97 647.368 1611C647.368 1607.03 647.368 1603.53 647.368 1600.52C647.368 1597.47 647.368 1595.94 647.368 1595.94C647.368 1595.94 648.874 1595.94 651.885 1595.94C654.939 1595.94 658.453 1595.94 662.426 1595.94C666.4 1595.94 669.893 1595.94 672.905 1595.94C675.958 1595.94 677.485 1595.94 677.485 1595.94C677.485 1595.94 677.485 1597.47 677.485 1600.52C677.485 1603.53 677.485 1607.03 677.485 1611C677.485 1614.97 677.485 1618.49 677.485 1621.54C677.485 1624.55 677.485 1626.06 677.485 1626.06C677.485 1626.06 675.958 1626.06 672.905 1626.06C669.893 1626.06 666.4 1626.06 662.426 1626.06C658.453 1626.06 654.939 1626.06 651.885 1626.06C648.874 1626.06 647.368 1626.06 647.368 1626.06ZM647.368 1626.06C647.368 1626.06 647.368 1624.55 647.368 1621.54C647.368 1618.49 647.368 1614.97 647.368 1611C647.368 1607.03 647.368 1603.53 647.368 1600.52C647.368 1597.47 647.368 1595.94 647.368 1595.94C647.368 1595.94 648.874 1595.94 651.885 1595.94C654.939 1595.94 658.453 1595.94 662.426 1595.94C666.4 1595.94 669.893 1595.94 672.905 1595.94C675.958 1595.94 677.485 1595.94 677.485 1595.94C677.485 1595.94 677.485 1597.47 677.485 1600.52C677.485 1603.53 677.485 1607.03 677.485 1611C677.485 1614.97 677.485 1618.49 677.485 1621.54C677.485 1624.55 677.485 1626.06 677.485 1626.06C677.485 1626.06 675.958 1626.06 672.905 1626.06C669.893 1626.06 666.4 1626.06 662.426 1626.06C658.453 1626.06 654.939 1626.06 651.885 1626.06C648.874 1626.06 647.368 1626.06 647.368 1626.06ZM647.368 1626.06C647.368 1626.06 647.368 1624.55 647.368 1621.54C647.368 1618.49 647.368 1614.97 647.368 1611C647.368 1607.03 647.368 1603.53 647.368 1600.52C647.368 1597.47 647.368 1595.94 647.368 1595.94C647.368 1595.94 648.874 1595.94 651.885 1595.94C654.939 1595.94 658.453 1595.94 662.426 1595.94C666.4 1595.94 669.893 1595.94 672.905 1595.94C675.958 1595.94 677.485 1595.94 677.485 1595.94C677.485 1595.94 677.485 1597.47 677.485 1600.52C677.485 1603.53 677.485 1607.03 677.485 1611C677.485 1614.97 677.485 1618.49 677.485 1621.54C677.485 1624.55 677.485 1626.06 677.485 1626.06C677.485 1626.06 675.958 1626.06 672.905 1626.06C669.893 1626.06 666.4 1626.06 662.426 1626.06C658.453 1626.06 654.939 1626.06 651.885 1626.06C648.874 1626.06 647.368 1626.06 647.368 1626.06ZM767.838 1626.06C767.838 1626.06 767.838 1624.55 767.838 1621.54C767.838 1618.49 767.838 1614.97 767.838 1611C767.838 1607.03 767.838 1603.53 767.838 1600.52C767.838 1597.47 767.838 1595.94 767.838 1595.94C767.838 1595.94 769.344 1595.94 772.356 1595.94C775.409 1595.94 778.923 1595.94 782.897 1595.94C786.871 1595.94 790.364 1595.94 793.376 1595.94C796.429 1595.94 797.956 1595.94 797.956 1595.94C797.956 1595.94 797.956 1597.47 797.956 1600.52C797.956 1603.53 797.956 1607.03 797.956 1611C797.956 1614.97 797.956 1618.49 797.956 1621.54C797.956 1624.55 797.956 1626.06 797.956 1626.06C797.956 1626.06 796.429 1626.06 793.376 1626.06C790.364 1626.06 786.871 1626.06 782.897 1626.06C778.923 1626.06 775.409 1626.06 772.356 1626.06C769.344 1626.06 767.838 1626.06 767.838 1626.06ZM767.838 1626.06C767.838 1626.06 767.838 1624.55 767.838 1621.54C767.838 1618.49 767.838 1614.97 767.838 1611C767.838 1607.03 767.838 1603.53 767.838 1600.52C767.838 1597.47 767.838 1595.94 767.838 1595.94C767.838 1595.94 769.344 1595.94 772.356 1595.94C775.409 1595.94 778.923 1595.94 782.897 1595.94C786.871 1595.94 790.364 1595.94 793.376 1595.94C796.429 1595.94 797.956 1595.94 797.956 1595.94C797.956 1595.94 797.956 1597.47 797.956 1600.52C797.956 1603.53 797.956 1607.03 797.956 1611C797.956 1614.97 797.956 1618.49 797.956 1621.54C797.956 1624.55 797.956 1626.06 797.956 1626.06C797.956 1626.06 796.429 1626.06 793.376 1626.06C790.364 1626.06 786.871 1626.06 782.897 1626.06C778.923 1626.06 775.409 1626.06 772.356 1626.06C769.344 1626.06 767.838 1626.06 767.838 1626.06ZM767.838 1626.06C767.838 1626.06 767.838 1624.55 767.838 1621.54C767.838 1618.49 767.838 1614.97 767.838 1611C767.838 1607.03 767.838 1603.53 767.838 1600.52C767.838 1597.47 767.838 1595.94 767.838 1595.94C767.838 1595.94 769.344 1595.94 772.356 1595.94C775.409 1595.94 778.923 1595.94 782.897 1595.94C786.871 1595.94 790.364 1595.94 793.376 1595.94C796.429 1595.94 797.956 1595.94 797.956 1595.94C797.956 1595.94 797.956 1597.47 797.956 1600.52C797.956 1603.53 797.956 1607.03 797.956 1611C797.956 1614.97 797.956 1618.49 797.956 1621.54C797.956 1624.55 797.956 1626.06 797.956 1626.06C797.956 1626.06 796.429 1626.06 793.376 1626.06C790.364 1626.06 786.871 1626.06 782.897 1626.06C778.923 1626.06 775.409 1626.06 772.356 1626.06C769.344 1626.06 767.838 1626.06 767.838 1626.06ZM767.838 1626.06C767.838 1626.06 767.838 1624.55 767.838 1621.54C767.838 1618.49 767.838 1614.97 767.838 1611C767.838 1607.03 767.838 1603.53 767.838 1600.52C767.838 1597.47 767.838 1595.94 767.838 1595.94C767.838 1595.94 769.344 1595.94 772.356 1595.94C775.409 1595.94 778.923 1595.94 782.897 1595.94C786.871 1595.94 790.364 1595.94 793.376 1595.94C796.429 1595.94 797.956 1595.94 797.956 1595.94C797.956 1595.94 797.956 1597.47 797.956 1600.52C797.956 1603.53 797.956 1607.03 797.956 1611C797.956 1614.97 797.956 1618.49 797.956 1621.54C797.956 1624.55 797.956 1626.06 797.956 1626.06C797.956 1626.06 796.429 1626.06 793.376 1626.06C790.364 1626.06 786.871 1626.06 782.897 1626.06C778.923 1626.06 775.409 1626.06 772.356 1626.06C769.344 1626.06 767.838 1626.06 767.838 1626.06ZM647.368 1595.94C647.368 1595.94 647.368 1594.44 647.368 1591.42C647.368 1588.37 647.368 1584.86 647.368 1580.88C647.368 1576.91 647.368 1573.42 647.368 1570.4C647.368 1567.35 647.368 1565.82 647.368 1565.82C647.368 1565.82 648.874 1565.82 651.885 1565.82C654.939 1565.82 658.453 1565.82 662.426 1565.82C666.4 1565.82 669.893 1565.82 672.905 1565.82C675.958 1565.82 677.485 1565.82 677.485 1565.82C677.485 1565.82 677.485 1567.35 677.485 1570.4C677.485 1573.42 677.485 1576.91 677.485 1580.88C677.485 1584.86 677.485 1588.37 677.485 1591.42C677.485 1594.44 677.485 1595.94 677.485 1595.94C677.485 1595.94 675.958 1595.94 672.905 1595.94C669.893 1595.94 666.4 1595.94 662.426 1595.94C658.453 1595.94 654.939 1595.94 651.885 1595.94C648.874 1595.94 647.368 1595.94 647.368 1595.94ZM647.368 1595.94C647.368 1595.94 647.368 1594.44 647.368 1591.42C647.368 1588.37 647.368 1584.86 647.368 1580.88C647.368 1576.91 647.368 1573.42 647.368 1570.4C647.368 1567.35 647.368 1565.82 647.368 1565.82C647.368 1565.82 648.874 1565.82 651.885 1565.82C654.939 1565.82 658.453 1565.82 662.426 1565.82C666.4 1565.82 669.893 1565.82 672.905 1565.82C675.958 1565.82 677.485 1565.82 677.485 1565.82C677.485 1565.82 677.485 1567.35 677.485 1570.4C677.485 1573.42 677.485 1576.91 677.485 1580.88C677.485 1584.86 677.485 1588.37 677.485 1591.42C677.485 1594.44 677.485 1595.94 677.485 1595.94C677.485 1595.94 675.958 1595.94 672.905 1595.94C669.893 1595.94 666.4 1595.94 662.426 1595.94C658.453 1595.94 654.939 1595.94 651.885 1595.94C648.874 1595.94 647.368 1595.94 647.368 1595.94ZM647.368 1595.94C647.368 1595.94 647.368 1594.44 647.368 1591.42C647.368 1588.37 647.368 1584.86 647.368 1580.88C647.368 1576.91 647.368 1573.42 647.368 1570.4C647.368 1567.35 647.368 1565.82 647.368 1565.82C647.368 1565.82 648.874 1565.82 651.885 1565.82C654.939 1565.82 658.453 1565.82 662.426 1565.82C666.4 1565.82 669.893 1565.82 672.905 1565.82C675.958 1565.82 677.485 1565.82 677.485 1565.82C677.485 1565.82 677.485 1567.35 677.485 1570.4C677.485 1573.42 677.485 1576.91 677.485 1580.88C677.485 1584.86 677.485 1588.37 677.485 1591.42C677.485 1594.44 677.485 1595.94 677.485 1595.94C677.485 1595.94 675.958 1595.94 672.905 1595.94C669.893 1595.94 666.4 1595.94 662.426 1595.94C658.453 1595.94 654.939 1595.94 651.885 1595.94C648.874 1595.94 647.368 1595.94 647.368 1595.94ZM647.368 1595.94C647.368 1595.94 647.368 1594.44 647.368 1591.42C647.368 1588.37 647.368 1584.86 647.368 1580.88C647.368 1576.91 647.368 1573.42 647.368 1570.4C647.368 1567.35 647.368 1565.82 647.368 1565.82C647.368 1565.82 648.874 1565.82 651.885 1565.82C654.939 1565.82 658.453 1565.82 662.426 1565.82C666.4 1565.82 669.893 1565.82 672.905 1565.82C675.958 1565.82 677.485 1565.82 677.485 1565.82C677.485 1565.82 677.485 1567.35 677.485 1570.4C677.485 1573.42 677.485 1576.91 677.485 1580.88C677.485 1584.86 677.485 1588.37 677.485 1591.42C677.485 1594.44 677.485 1595.94 677.485 1595.94C677.485 1595.94 675.958 1595.94 672.905 1595.94C669.893 1595.94 666.4 1595.94 662.426 1595.94C658.453 1595.94 654.939 1595.94 651.885 1595.94C648.874 1595.94 647.368 1595.94 647.368 1595.94ZM767.838 1595.94C767.838 1595.94 767.838 1594.44 767.838 1591.42C767.838 1588.37 767.838 1584.86 767.838 1580.88C767.838 1576.91 767.838 1573.42 767.838 1570.4C767.838 1567.35 767.838 1565.82 767.838 1565.82C767.838 1565.82 769.344 1565.82 772.356 1565.82C775.409 1565.82 778.923 1565.82 782.897 1565.82C786.871 1565.82 790.364 1565.82 793.376 1565.82C796.429 1565.82 797.956 1565.82 797.956 1565.82C797.956 1565.82 797.956 1567.35 797.956 1570.4C797.956 1573.42 797.956 1576.91 797.956 1580.88C797.956 1584.86 797.956 1588.37 797.956 1591.42C797.956 1594.44 797.956 1595.94 797.956 1595.94C797.956 1595.94 796.429 1595.94 793.376 1595.94C790.364 1595.94 786.871 1595.94 782.897 1595.94C778.923 1595.94 775.409 1595.94 772.356 1595.94C769.344 1595.94 767.838 1595.94 767.838 1595.94ZM767.838 1595.94C767.838 1595.94 767.838 1594.44 767.838 1591.42C767.838 1588.37 767.838 1584.86 767.838 1580.88C767.838 1576.91 767.838 1573.42 767.838 1570.4C767.838 1567.35 767.838 1565.82 767.838 1565.82C767.838 1565.82 769.344 1565.82 772.356 1565.82C775.409 1565.82 778.923 1565.82 782.897 1565.82C786.871 1565.82 790.364 1565.82 793.376 1565.82C796.429 1565.82 797.956 1565.82 797.956 1565.82C797.956 1565.82 797.956 1567.35 797.956 1570.4C797.956 1573.42 797.956 1576.91 797.956 1580.88C797.956 1584.86 797.956 1588.37 797.956 1591.42C797.956 1594.44 797.956 1595.94 797.956 1595.94C797.956 1595.94 796.429 1595.94 793.376 1595.94C790.364 1595.94 786.871 1595.94 782.897 1595.94C778.923 1595.94 775.409 1595.94 772.356 1595.94C769.344 1595.94 767.838 1595.94 767.838 1595.94ZM767.838 1595.94C767.838 1595.94 767.838 1594.44 767.838 1591.42C767.838 1588.37 767.838 1584.86 767.838 1580.88C767.838 1576.91 767.838 1573.42 767.838 1570.4C767.838 1567.35 767.838 1565.82 767.838 1565.82C767.838 1565.82 769.344 1565.82 772.356 1565.82C775.409 1565.82 778.923 1565.82 782.897 1565.82C786.871 1565.82 790.364 1565.82 793.376 1565.82C796.429 1565.82 797.956 1565.82 797.956 1565.82C797.956 1565.82 797.956 1567.35 797.956 1570.4C797.956 1573.42 797.956 1576.91 797.956 1580.88C797.956 1584.86 797.956 1588.37 797.956 1591.42C797.956 1594.44 797.956 1595.94 797.956 1595.94C797.956 1595.94 796.429 1595.94 793.376 1595.94C790.364 1595.94 786.871 1595.94 782.897 1595.94C778.923 1595.94 775.409 1595.94 772.356 1595.94C769.344 1595.94 767.838 1595.94 767.838 1595.94ZM767.838 1595.94C767.838 1595.94 767.838 1594.44 767.838 1591.42C767.838 1588.37 767.838 1584.86 767.838 1580.88C767.838 1576.91 767.838 1573.42 767.838 1570.4C767.838 1567.35 767.838 1565.82 767.838 1565.82C767.838 1565.82 769.344 1565.82 772.356 1565.82C775.409 1565.82 778.923 1565.82 782.897 1565.82C786.871 1565.82 790.364 1565.82 793.376 1565.82C796.429 1565.82 797.956 1565.82 797.956 1565.82C797.956 1565.82 797.956 1567.35 797.956 1570.4C797.956 1573.42 797.956 1576.91 797.956 1580.88C797.956 1584.86 797.956 1588.37 797.956 1591.42C797.956 1594.44 797.956 1595.94 797.956 1595.94C797.956 1595.94 796.429 1595.94 793.376 1595.94C790.364 1595.94 786.871 1595.94 782.897 1595.94C778.923 1595.94 775.409 1595.94 772.356 1595.94C769.344 1595.94 767.838 1595.94 767.838 1595.94ZM647.368 1565.82C647.368 1565.82 647.368 1564.32 647.368 1561.31C647.368 1558.25 647.368 1554.74 647.368 1550.76C647.368 1546.79 647.368 1543.3 647.368 1540.29C647.368 1537.23 647.368 1535.71 647.368 1535.71C647.368 1535.71 648.874 1535.71 651.885 1535.71C654.939 1535.71 658.453 1535.71 662.426 1535.71C666.4 1535.71 669.893 1535.71 672.905 1535.71C675.958 1535.71 677.485 1535.71 677.485 1535.71C677.485 1535.71 677.485 1537.23 677.485 1540.29C677.485 1543.3 677.485 1546.79 677.485 1550.76C677.485 1554.74 677.485 1558.25 677.485 1561.31C677.485 1564.32 677.485 1565.82 677.485 1565.82C677.485 1565.82 675.958 1565.82 672.905 1565.82C669.893 1565.82 666.4 1565.82 662.426 1565.82C658.453 1565.82 654.939 1565.82 651.885 1565.82C648.874 1565.82 647.368 1565.82 647.368 1565.82ZM647.368 1565.82C647.368 1565.82 647.368 1564.32 647.368 1561.31C647.368 1558.25 647.368 1554.74 647.368 1550.76C647.368 1546.79 647.368 1543.3 647.368 1540.29C647.368 1537.23 647.368 1535.71 647.368 1535.71C647.368 1535.71 648.874 1535.71 651.885 1535.71C654.939 1535.71 658.453 1535.71 662.426 1535.71C666.4 1535.71 669.893 1535.71 672.905 1535.71C675.958 1535.71 677.485 1535.71 677.485 1535.71C677.485 1535.71 677.485 1537.23 677.485 1540.29C677.485 1543.3 677.485 1546.79 677.485 1550.76C677.485 1554.74 677.485 1558.25 677.485 1561.31C677.485 1564.32 677.485 1565.82 677.485 1565.82C677.485 1565.82 675.958 1565.82 672.905 1565.82C669.893 1565.82 666.4 1565.82 662.426 1565.82C658.453 1565.82 654.939 1565.82 651.885 1565.82C648.874 1565.82 647.368 1565.82 647.368 1565.82ZM647.368 1565.82C647.368 1565.82 647.368 1564.32 647.368 1561.31C647.368 1558.25 647.368 1554.74 647.368 1550.76C647.368 1546.79 647.368 1543.3 647.368 1540.29C647.368 1537.23 647.368 1535.71 647.368 1535.71C647.368 1535.71 648.874 1535.71 651.885 1535.71C654.939 1535.71 658.453 1535.71 662.426 1535.71C666.4 1535.71 669.893 1535.71 672.905 1535.71C675.958 1535.71 677.485 1535.71 677.485 1535.71C677.485 1535.71 677.485 1537.23 677.485 1540.29C677.485 1543.3 677.485 1546.79 677.485 1550.76C677.485 1554.74 677.485 1558.25 677.485 1561.31C677.485 1564.32 677.485 1565.82 677.485 1565.82C677.485 1565.82 675.958 1565.82 672.905 1565.82C669.893 1565.82 666.4 1565.82 662.426 1565.82C658.453 1565.82 654.939 1565.82 651.885 1565.82C648.874 1565.82 647.368 1565.82 647.368 1565.82ZM647.368 1565.82C647.368 1565.82 647.368 1564.32 647.368 1561.31C647.368 1558.25 647.368 1554.74 647.368 1550.76C647.368 1546.79 647.368 1543.3 647.368 1540.29C647.368 1537.23 647.368 1535.71 647.368 1535.71C647.368 1535.71 648.874 1535.71 651.885 1535.71C654.939 1535.71 658.453 1535.71 662.426 1535.71C666.4 1535.71 669.893 1535.71 672.905 1535.71C675.958 1535.71 677.485 1535.71 677.485 1535.71C677.485 1535.71 677.485 1537.23 677.485 1540.29C677.485 1543.3 677.485 1546.79 677.485 1550.76C677.485 1554.74 677.485 1558.25 677.485 1561.31C677.485 1564.32 677.485 1565.82 677.485 1565.82C677.485 1565.82 675.958 1565.82 672.905 1565.82C669.893 1565.82 666.4 1565.82 662.426 1565.82C658.453 1565.82 654.939 1565.82 651.885 1565.82C648.874 1565.82 647.368 1565.82 647.368 1565.82ZM677.485 1565.82C677.485 1565.82 677.485 1564.32 677.485 1561.31C677.485 1558.25 677.485 1554.74 677.485 1550.76C677.485 1546.79 677.485 1543.3 677.485 1540.29C677.485 1537.23 677.485 1535.71 677.485 1535.71C677.485 1535.71 678.991 1535.71 682.003 1535.71C685.057 1535.71 688.57 1535.71 692.544 1535.71C696.518 1535.71 700.011 1535.71 703.023 1535.71C706.076 1535.71 707.603 1535.71 707.603 1535.71C707.603 1535.71 707.603 1537.23 707.603 1540.29C707.603 1543.3 707.603 1546.79 707.603 1550.76C707.603 1554.74 707.603 1558.25 707.603 1561.31C707.603 1564.32 707.603 1565.82 707.603 1565.82C707.603 1565.82 706.076 1565.82 703.023 1565.82C700.011 1565.82 696.518 1565.82 692.544 1565.82C688.57 1565.82 685.057 1565.82 682.003 1565.82C678.991 1565.82 677.485 1565.82 677.485 1565.82ZM677.485 1565.82C677.485 1565.82 677.485 1564.32 677.485 1561.31C677.485 1558.25 677.485 1554.74 677.485 1550.76C677.485 1546.79 677.485 1543.3 677.485 1540.29C677.485 1537.23 677.485 1535.71 677.485 1535.71C677.485 1535.71 678.991 1535.71 682.003 1535.71C685.057 1535.71 688.57 1535.71 692.544 1535.71C696.518 1535.71 700.011 1535.71 703.023 1535.71C706.076 1535.71 707.603 1535.71 707.603 1535.71C707.603 1535.71 707.603 1537.23 707.603 1540.29C707.603 1543.3 707.603 1546.79 707.603 1550.76C707.603 1554.74 707.603 1558.25 707.603 1561.31C707.603 1564.32 707.603 1565.82 707.603 1565.82C707.603 1565.82 706.076 1565.82 703.023 1565.82C700.011 1565.82 696.518 1565.82 692.544 1565.82C688.57 1565.82 685.057 1565.82 682.003 1565.82C678.991 1565.82 677.485 1565.82 677.485 1565.82ZM677.485 1565.82C677.485 1565.82 677.485 1564.32 677.485 1561.31C677.485 1558.25 677.485 1554.74 677.485 1550.76C677.485 1546.79 677.485 1543.3 677.485 1540.29C677.485 1537.23 677.485 1535.71 677.485 1535.71C677.485 1535.71 678.991 1535.71 682.003 1535.71C685.057 1535.71 688.57 1535.71 692.544 1535.71C696.518 1535.71 700.011 1535.71 703.023 1535.71C706.076 1535.71 707.603 1535.71 707.603 1535.71C707.603 1535.71 707.603 1537.23 707.603 1540.29C707.603 1543.3 707.603 1546.79 707.603 1550.76C707.603 1554.74 707.603 1558.25 707.603 1561.31C707.603 1564.32 707.603 1565.82 707.603 1565.82C707.603 1565.82 706.076 1565.82 703.023 1565.82C700.011 1565.82 696.518 1565.82 692.544 1565.82C688.57 1565.82 685.057 1565.82 682.003 1565.82C678.991 1565.82 677.485 1565.82 677.485 1565.82ZM677.485 1565.82C677.485 1565.82 677.485 1564.32 677.485 1561.31C677.485 1558.25 677.485 1554.74 677.485 1550.76C677.485 1546.79 677.485 1543.3 677.485 1540.29C677.485 1537.23 677.485 1535.71 677.485 1535.71C677.485 1535.71 678.991 1535.71 682.003 1535.71C685.057 1535.71 688.57 1535.71 692.544 1535.71C696.518 1535.71 700.011 1535.71 703.023 1535.71C706.076 1535.71 707.603 1535.71 707.603 1535.71C707.603 1535.71 707.603 1537.23 707.603 1540.29C707.603 1543.3 707.603 1546.79 707.603 1550.76C707.603 1554.74 707.603 1558.25 707.603 1561.31C707.603 1564.32 707.603 1565.82 707.603 1565.82C707.603 1565.82 706.076 1565.82 703.023 1565.82C700.011 1565.82 696.518 1565.82 692.544 1565.82C688.57 1565.82 685.057 1565.82 682.003 1565.82C678.991 1565.82 677.485 1565.82 677.485 1565.82ZM707.603 1565.82C707.603 1565.82 707.603 1564.32 707.603 1561.31C707.603 1558.25 707.603 1554.74 707.603 1550.76C707.603 1546.79 707.603 1543.3 707.603 1540.29C707.603 1537.23 707.603 1535.71 707.603 1535.71C707.603 1535.71 709.109 1535.71 712.121 1535.71C715.174 1535.71 718.688 1535.71 722.662 1535.71C726.636 1535.71 730.128 1535.71 733.14 1535.71C736.194 1535.71 737.721 1535.71 737.721 1535.71C737.721 1535.71 737.721 1537.23 737.721 1540.29C737.721 1543.3 737.721 1546.79 737.721 1550.76C737.721 1554.74 737.721 1558.25 737.721 1561.31C737.721 1564.32 737.721 1565.82 737.721 1565.82C737.721 1565.82 736.194 1565.82 733.14 1565.82C730.128 1565.82 726.636 1565.82 722.662 1565.82C718.688 1565.82 715.174 1565.82 712.121 1565.82C709.109 1565.82 707.603 1565.82 707.603 1565.82ZM707.603 1565.82C707.603 1565.82 707.603 1564.32 707.603 1561.31C707.603 1558.25 707.603 1554.74 707.603 1550.76C707.603 1546.79 707.603 1543.3 707.603 1540.29C707.603 1537.23 707.603 1535.71 707.603 1535.71C707.603 1535.71 709.109 1535.71 712.121 1535.71C715.174 1535.71 718.688 1535.71 722.662 1535.71C726.636 1535.71 730.128 1535.71 733.14 1535.71C736.194 1535.71 737.721 1535.71 737.721 1535.71C737.721 1535.71 737.721 1537.23 737.721 1540.29C737.721 1543.3 737.721 1546.79 737.721 1550.76C737.721 1554.74 737.721 1558.25 737.721 1561.31C737.721 1564.32 737.721 1565.82 737.721 1565.82C737.721 1565.82 736.194 1565.82 733.14 1565.82C730.128 1565.82 726.636 1565.82 722.662 1565.82C718.688 1565.82 715.174 1565.82 712.121 1565.82C709.109 1565.82 707.603 1565.82 707.603 1565.82ZM707.603 1565.82C707.603 1565.82 707.603 1564.32 707.603 1561.31C707.603 1558.25 707.603 1554.74 707.603 1550.76C707.603 1546.79 707.603 1543.3 707.603 1540.29C707.603 1537.23 707.603 1535.71 707.603 1535.71C707.603 1535.71 709.109 1535.71 712.121 1535.71C715.174 1535.71 718.688 1535.71 722.662 1535.71C726.636 1535.71 730.128 1535.71 733.14 1535.71C736.194 1535.71 737.721 1535.71 737.721 1535.71C737.721 1535.71 737.721 1537.23 737.721 1540.29C737.721 1543.3 737.721 1546.79 737.721 1550.76C737.721 1554.74 737.721 1558.25 737.721 1561.31C737.721 1564.32 737.721 1565.82 737.721 1565.82C737.721 1565.82 736.194 1565.82 733.14 1565.82C730.128 1565.82 726.636 1565.82 722.662 1565.82C718.688 1565.82 715.174 1565.82 712.121 1565.82C709.109 1565.82 707.603 1565.82 707.603 1565.82ZM707.603 1565.82C707.603 1565.82 707.603 1564.32 707.603 1561.31C707.603 1558.25 707.603 1554.74 707.603 1550.76C707.603 1546.79 707.603 1543.3 707.603 1540.29C707.603 1537.23 707.603 1535.71 707.603 1535.71C707.603 1535.71 709.109 1535.71 712.121 1535.71C715.174 1535.71 718.688 1535.71 722.662 1535.71C726.636 1535.71 730.128 1535.71 733.14 1535.71C736.194 1535.71 737.721 1535.71 737.721 1535.71C737.721 1535.71 737.721 1537.23 737.721 1540.29C737.721 1543.3 737.721 1546.79 737.721 1550.76C737.721 1554.74 737.721 1558.25 737.721 1561.31C737.721 1564.32 737.721 1565.82 737.721 1565.82C737.721 1565.82 736.194 1565.82 733.14 1565.82C730.128 1565.82 726.636 1565.82 722.662 1565.82C718.688 1565.82 715.174 1565.82 712.121 1565.82C709.109 1565.82 707.603 1565.82 707.603 1565.82ZM737.721 1565.82C737.721 1565.82 737.721 1564.32 737.721 1561.31C737.721 1558.25 737.721 1554.74 737.721 1550.76C737.721 1546.79 737.721 1543.3 737.721 1540.29C737.721 1537.23 737.721 1535.71 737.721 1535.71C737.721 1535.71 739.226 1535.71 742.238 1535.71C745.292 1535.71 748.806 1535.71 752.779 1535.71C756.753 1535.71 760.246 1535.71 763.258 1535.71C766.311 1535.71 767.838 1535.71 767.838 1535.71C767.838 1535.71 767.838 1537.23 767.838 1540.29C767.838 1543.3 767.838 1546.79 767.838 1550.76C767.838 1554.74 767.838 1558.25 767.838 1561.31C767.838 1564.32 767.838 1565.82 767.838 1565.82C767.838 1565.82 766.311 1565.82 763.258 1565.82C760.246 1565.82 756.753 1565.82 752.779 1565.82C748.806 1565.82 745.292 1565.82 742.238 1565.82C739.226 1565.82 737.721 1565.82 737.721 1565.82ZM737.721 1565.82C737.721 1565.82 737.721 1564.32 737.721 1561.31C737.721 1558.25 737.721 1554.74 737.721 1550.76C737.721 1546.79 737.721 1543.3 737.721 1540.29C737.721 1537.23 737.721 1535.71 737.721 1535.71C737.721 1535.71 739.226 1535.71 742.238 1535.71C745.292 1535.71 748.806 1535.71 752.779 1535.71C756.753 1535.71 760.246 1535.71 763.258 1535.71C766.311 1535.71 767.838 1535.71 767.838 1535.71C767.838 1535.71 767.838 1537.23 767.838 1540.29C767.838 1543.3 767.838 1546.79 767.838 1550.76C767.838 1554.74 767.838 1558.25 767.838 1561.31C767.838 1564.32 767.838 1565.82 767.838 1565.82C767.838 1565.82 766.311 1565.82 763.258 1565.82C760.246 1565.82 756.753 1565.82 752.779 1565.82C748.806 1565.82 745.292 1565.82 742.238 1565.82C739.226 1565.82 737.721 1565.82 737.721 1565.82ZM737.721 1565.82C737.721 1565.82 737.721 1564.32 737.721 1561.31C737.721 1558.25 737.721 1554.74 737.721 1550.76C737.721 1546.79 737.721 1543.3 737.721 1540.29C737.721 1537.23 737.721 1535.71 737.721 1535.71C737.721 1535.71 739.226 1535.71 742.238 1535.71C745.292 1535.71 748.806 1535.71 752.779 1535.71C756.753 1535.71 760.246 1535.71 763.258 1535.71C766.311 1535.71 767.838 1535.71 767.838 1535.71C767.838 1535.71 767.838 1537.23 767.838 1540.29C767.838 1543.3 767.838 1546.79 767.838 1550.76C767.838 1554.74 767.838 1558.25 767.838 1561.31C767.838 1564.32 767.838 1565.82 767.838 1565.82C767.838 1565.82 766.311 1565.82 763.258 1565.82C760.246 1565.82 756.753 1565.82 752.779 1565.82C748.806 1565.82 745.292 1565.82 742.238 1565.82C739.226 1565.82 737.721 1565.82 737.721 1565.82ZM737.721 1565.82C737.721 1565.82 737.721 1564.32 737.721 1561.31C737.721 1558.25 737.721 1554.74 737.721 1550.76C737.721 1546.79 737.721 1543.3 737.721 1540.29C737.721 1537.23 737.721 1535.71 737.721 1535.71C737.721 1535.71 739.226 1535.71 742.238 1535.71C745.292 1535.71 748.806 1535.71 752.779 1535.71C756.753 1535.71 760.246 1535.71 763.258 1535.71C766.311 1535.71 767.838 1535.71 767.838 1535.71C767.838 1535.71 767.838 1537.23 767.838 1540.29C767.838 1543.3 767.838 1546.79 767.838 1550.76C767.838 1554.74 767.838 1558.25 767.838 1561.31C767.838 1564.32 767.838 1565.82 767.838 1565.82C767.838 1565.82 766.311 1565.82 763.258 1565.82C760.246 1565.82 756.753 1565.82 752.779 1565.82C748.806 1565.82 745.292 1565.82 742.238 1565.82C739.226 1565.82 737.721 1565.82 737.721 1565.82ZM843.368 1867C843.368 1867 843.368 1865.49 843.368 1862.48V1851.94V1841.46V1836.88C843.368 1836.88 843.368 1835.38 843.368 1832.36V1821.82V1811.35V1806.76C843.368 1806.76 843.368 1805.26 843.368 1802.25V1791.71V1781.23V1776.65C843.368 1776.65 843.368 1775.14 843.368 1772.13V1761.59V1751.11V1746.53C843.368 1746.53 843.368 1745.02 843.368 1742.01V1731.47V1720.99V1716.41C843.368 1716.41 843.368 1714.91 843.368 1711.89V1701.35V1690.87V1686.29C843.368 1686.29 843.368 1684.79 843.368 1681.78V1671.24V1660.76V1656.18C843.368 1656.18 843.368 1654.67 843.368 1651.66V1641.12V1630.64V1626.06C843.368 1626.06 843.368 1624.55 843.368 1621.54V1611V1600.52V1595.94C843.368 1595.94 843.368 1594.44 843.368 1591.42V1580.88V1570.4V1565.82C843.368 1565.82 843.368 1564.32 843.368 1561.31V1550.76V1540.29V1535.71H847.885H858.426H868.905H873.485C873.485 1535.71 873.485 1537.23 873.485 1540.29V1535.71H878.003H888.544H899.023H903.603C903.603 1535.71 903.603 1537.23 903.603 1540.29V1535.71H908.121H918.662H929.14H933.721C933.721 1535.71 933.721 1537.23 933.721 1540.29V1535.71H938.238H948.779H959.258H963.838C963.838 1535.71 963.838 1537.23 963.838 1540.29V1550.76V1561.31V1565.82C963.838 1565.82 962.311 1565.82 959.258 1565.82H948.779H938.238H933.721C933.721 1565.82 933.721 1564.32 933.721 1561.31V1565.82C933.721 1565.82 932.194 1565.82 929.14 1565.82H918.662H908.121H903.603C903.603 1565.82 903.603 1564.32 903.603 1561.31V1565.82C903.603 1565.82 902.076 1565.82 899.023 1565.82H888.544H878.003H873.485C873.485 1565.82 873.485 1564.32 873.485 1561.31V1565.82C873.485 1565.82 871.958 1565.82 868.905 1565.82H873.485C873.485 1565.82 873.485 1567.35 873.485 1570.4V1580.88V1591.42V1595.94C873.485 1595.94 871.958 1595.94 868.905 1595.94H873.485C873.485 1595.94 873.485 1597.47 873.485 1600.52V1611V1621.54V1626.06C873.485 1626.06 871.958 1626.06 868.905 1626.06H873.485C873.485 1626.06 873.485 1627.59 873.485 1630.64V1641.12V1651.66V1656.18C873.485 1656.18 871.958 1656.18 868.905 1656.18H873.485C873.485 1656.18 873.485 1657.7 873.485 1660.76V1671.24V1681.78V1686.29C873.485 1686.29 871.958 1686.29 868.905 1686.29H873.485C873.485 1686.29 873.485 1687.82 873.485 1690.87V1686.29H878.003H888.544H899.023H903.603C903.603 1686.29 903.603 1687.82 903.603 1690.87V1686.29H908.121H918.662H929.14H933.721C933.721 1686.29 933.721 1687.82 933.721 1690.87V1686.29H938.238H948.779H959.258H963.838C963.838 1686.29 963.838 1687.82 963.838 1690.87V1701.35V1711.89V1716.41C963.838 1716.41 962.311 1716.41 959.258 1716.41H948.779H938.238H933.721C933.721 1716.41 933.721 1714.91 933.721 1711.89V1716.41C933.721 1716.41 932.194 1716.41 929.14 1716.41H918.662H908.121H903.603C903.603 1716.41 903.603 1714.91 903.603 1711.89V1716.41C903.603 1716.41 902.076 1716.41 899.023 1716.41H888.544H878.003H873.485C873.485 1716.41 873.485 1714.91 873.485 1711.89V1716.41C873.485 1716.41 871.958 1716.41 868.905 1716.41H873.485C873.485 1716.41 873.485 1717.94 873.485 1720.99V1731.47V1742.01V1746.53C873.485 1746.53 871.958 1746.53 868.905 1746.53H873.485C873.485 1746.53 873.485 1748.06 873.485 1751.11V1761.59V1772.13V1776.65C873.485 1776.65 871.958 1776.65 868.905 1776.65H873.485C873.485 1776.65 873.485 1778.17 873.485 1781.23V1791.71V1802.25V1806.76C873.485 1806.76 871.958 1806.76 868.905 1806.76H873.485C873.485 1806.76 873.485 1808.29 873.485 1811.35V1821.82V1832.36V1836.88C873.485 1836.88 871.958 1836.88 868.905 1836.88H873.485C873.485 1836.88 873.485 1838.41 873.485 1841.46V1836.88H878.003H888.544H899.023H903.603C903.603 1836.88 903.603 1838.41 903.603 1841.46V1836.88H908.121H918.662H929.14H933.721C933.721 1836.88 933.721 1838.41 933.721 1841.46V1836.88H938.238H948.779H959.258H963.838C963.838 1836.88 963.838 1838.41 963.838 1841.46V1851.94V1862.48V1867C963.838 1867 962.311 1867 959.258 1867H948.779H938.238H933.721C933.721 1867 933.721 1865.49 933.721 1862.48V1867C933.721 1867 932.194 1867 929.14 1867H918.662H908.121H903.603C903.603 1867 903.603 1865.49 903.603 1862.48V1867C903.603 1867 902.076 1867 899.023 1867H888.544H878.003H873.485C873.485 1867 873.485 1865.49 873.485 1862.48V1867C873.485 1867 871.958 1867 868.905 1867H858.426H847.885H843.368ZM1008.87 1867C1008.87 1867 1008.87 1865.49 1008.87 1862.48V1851.94V1841.46V1836.88C1008.87 1836.88 1008.87 1835.38 1008.87 1832.36V1821.82V1811.35V1806.76C1008.87 1806.76 1008.87 1805.26 1008.87 1802.25V1791.71V1781.23V1776.65C1008.87 1776.65 1008.87 1775.14 1008.87 1772.13V1761.59V1751.11V1746.53C1008.87 1746.53 1008.87 1745.02 1008.87 1742.01V1731.47V1720.99V1716.41C1008.87 1716.41 1008.87 1714.91 1008.87 1711.89V1701.35V1690.87V1686.29C1008.87 1686.29 1008.87 1684.79 1008.87 1681.78V1671.24V1660.76V1656.18C1008.87 1656.18 1008.87 1654.67 1008.87 1651.66V1641.12V1630.64V1626.06C1008.87 1626.06 1008.87 1624.55 1008.87 1621.54V1611V1600.52V1595.94C1008.87 1595.94 1008.87 1594.44 1008.87 1591.42V1580.88V1570.4V1565.82C1008.87 1565.82 1008.87 1564.32 1008.87 1561.31V1550.76V1540.29V1535.71H1013.39H1023.93H1034.4H1038.99C1038.99 1535.71 1038.99 1537.23 1038.99 1540.29V1550.76V1561.31V1565.82C1038.99 1565.82 1037.46 1565.82 1034.4 1565.82H1038.99C1038.99 1565.82 1038.99 1567.35 1038.99 1570.4V1580.88V1591.42V1595.94C1038.99 1595.94 1037.46 1595.94 1034.4 1595.94H1038.99C1038.99 1595.94 1038.99 1597.47 1038.99 1600.52V1595.94H1043.5H1054.04H1064.52H1069.1C1069.1 1595.94 1069.1 1597.47 1069.1 1600.52V1611V1621.54V1626.06C1069.1 1626.06 1067.58 1626.06 1064.52 1626.06H1054.04H1043.5H1038.99C1038.99 1626.06 1038.99 1624.55 1038.99 1621.54V1626.06C1038.99 1626.06 1037.46 1626.06 1034.4 1626.06H1038.99C1038.99 1626.06 1038.99 1627.59 1038.99 1630.64V1641.12V1651.66V1656.18C1038.99 1656.18 1037.46 1656.18 1034.4 1656.18H1038.99C1038.99 1656.18 1038.99 1657.7 1038.99 1660.76V1671.24V1681.78V1686.29C1038.99 1686.29 1037.46 1686.29 1034.4 1686.29H1038.99C1038.99 1686.29 1038.99 1687.82 1038.99 1690.87V1701.35V1711.89V1716.41C1038.99 1716.41 1037.46 1716.41 1034.4 1716.41H1038.99C1038.99 1716.41 1038.99 1717.94 1038.99 1720.99V1731.47V1742.01V1746.53C1038.99 1746.53 1037.46 1746.53 1034.4 1746.53H1038.99C1038.99 1746.53 1038.99 1748.06 1038.99 1751.11V1761.59V1772.13V1776.65C1038.99 1776.65 1037.46 1776.65 1034.4 1776.65H1038.99C1038.99 1776.65 1038.99 1778.17 1038.99 1781.23V1791.71V1802.25V1806.76C1038.99 1806.76 1037.46 1806.76 1034.4 1806.76H1038.99C1038.99 1806.76 1038.99 1808.29 1038.99 1811.35V1821.82V1832.36V1836.88C1038.99 1836.88 1037.46 1836.88 1034.4 1836.88H1038.99C1038.99 1836.88 1038.99 1838.41 1038.99 1841.46V1851.94V1862.48V1867C1038.99 1867 1037.46 1867 1034.4 1867H1023.93H1013.39H1008.87ZM1129.34 1806.76C1129.34 1806.76 1129.34 1805.26 1129.34 1802.25V1791.71V1781.23V1776.65H1133.86H1144.4H1154.88H1159.46C1159.46 1776.65 1159.46 1778.17 1159.46 1781.23V1776.65C1159.46 1776.65 1159.46 1775.14 1159.46 1772.13V1761.59V1751.11V1746.53C1159.46 1746.53 1159.46 1745.02 1159.46 1742.01V1731.47V1720.99V1716.41C1159.46 1716.41 1159.46 1714.91 1159.46 1711.89V1701.35V1690.87V1686.29C1159.46 1686.29 1159.46 1684.79 1159.46 1681.78V1671.24V1660.76V1656.18C1159.46 1656.18 1159.46 1654.67 1159.46 1651.66V1641.12V1630.64V1626.06C1159.46 1626.06 1159.46 1624.55 1159.46 1621.54V1611V1600.52V1595.94C1159.46 1595.94 1159.46 1594.44 1159.46 1591.42V1580.88V1570.4V1565.82C1159.46 1565.82 1159.46 1564.32 1159.46 1561.31V1550.76V1540.29V1535.71H1163.97H1174.51H1184.99H1189.57C1189.57 1535.71 1189.57 1537.23 1189.57 1540.29V1550.76V1561.31V1565.82C1189.57 1565.82 1188.05 1565.82 1184.99 1565.82H1189.57C1189.57 1565.82 1189.57 1567.35 1189.57 1570.4V1580.88V1591.42V1595.94C1189.57 1595.94 1188.05 1595.94 1184.99 1595.94H1189.57C1189.57 1595.94 1189.57 1597.47 1189.57 1600.52V1611V1621.54V1626.06C1189.57 1626.06 1188.05 1626.06 1184.99 1626.06H1189.57C1189.57 1626.06 1189.57 1627.59 1189.57 1630.64V1641.12V1651.66V1656.18C1189.57 1656.18 1188.05 1656.18 1184.99 1656.18H1189.57C1189.57 1656.18 1189.57 1657.7 1189.57 1660.76V1671.24V1681.78V1686.29C1189.57 1686.29 1188.05 1686.29 1184.99 1686.29H1189.57C1189.57 1686.29 1189.57 1687.82 1189.57 1690.87V1701.35V1711.89V1716.41C1189.57 1716.41 1188.05 1716.41 1184.99 1716.41H1189.57C1189.57 1716.41 1189.57 1717.94 1189.57 1720.99V1731.47V1742.01V1746.53C1189.57 1746.53 1188.05 1746.53 1184.99 1746.53H1189.57C1189.57 1746.53 1189.57 1748.06 1189.57 1751.11V1761.59V1772.13V1776.65C1189.57 1776.65 1188.05 1776.65 1184.99 1776.65H1189.57C1189.57 1776.65 1189.57 1778.17 1189.57 1781.23V1791.71V1802.25V1806.76C1189.57 1806.76 1188.05 1806.76 1184.99 1806.76H1189.57C1189.57 1806.76 1189.57 1808.29 1189.57 1811.35V1821.82V1832.36V1836.88C1189.57 1836.88 1188.05 1836.88 1184.99 1836.88H1189.57C1189.57 1836.88 1189.57 1838.41 1189.57 1841.46V1851.94V1862.48V1867C1189.57 1867 1188.05 1867 1184.99 1867H1174.51H1163.97H1159.46C1159.46 1867 1159.46 1865.49 1159.46 1862.48V1851.94V1841.46V1836.88C1159.46 1836.88 1159.46 1835.38 1159.46 1832.36V1821.82V1811.35V1806.76C1159.46 1806.76 1159.46 1805.26 1159.46 1802.25V1806.76C1159.46 1806.76 1157.93 1806.76 1154.88 1806.76H1144.4H1133.86H1129.34ZM1114.28 1776.65C1114.28 1776.65 1114.28 1775.14 1114.28 1772.13V1761.59V1751.11V1746.53H1118.8H1129.34H1139.82H1144.4C1144.4 1746.53 1144.4 1748.06 1144.4 1751.11V1761.59V1772.13V1776.65C1144.4 1776.65 1142.87 1776.65 1139.82 1776.65H1129.34H1118.8H1114.28ZM1099.22 1746.53C1099.22 1746.53 1099.22 1745.02 1099.22 1742.01V1731.47V1720.99V1716.41H1103.74H1114.28H1124.76H1129.34C1129.34 1716.41 1129.34 1717.94 1129.34 1720.99V1731.47V1742.01V1746.53C1129.34 1746.53 1127.81 1746.53 1124.76 1746.53H1114.28H1103.74H1099.22ZM1084.16 1716.41C1084.16 1716.41 1084.16 1714.91 1084.16 1711.89V1701.35V1690.87V1686.29H1088.68H1099.22H1109.7H1114.28C1114.28 1686.29 1114.28 1687.82 1114.28 1690.87V1701.35V1711.89V1716.41C1114.28 1716.41 1112.75 1716.41 1109.7 1716.41H1099.22H1088.68H1084.16ZM1069.1 1686.29C1069.1 1686.29 1069.1 1684.79 1069.1 1681.78V1671.24V1660.76V1656.18H1073.62H1084.16H1094.64H1099.22C1099.22 1656.18 1099.22 1657.7 1099.22 1660.76V1671.24V1681.78V1686.29C1099.22 1686.29 1097.69 1686.29 1094.64 1686.29H1084.16H1073.62H1069.1ZM1054.04 1656.18C1054.04 1656.18 1054.04 1654.67 1054.04 1651.66V1641.12V1630.64V1626.06H1058.56H1069.1H1079.58H1084.16C1084.16 1626.06 1084.16 1627.59 1084.16 1630.64V1641.12V1651.66V1656.18C1084.16 1656.18 1082.63 1656.18 1079.58 1656.18H1069.1H1058.56H1054.04ZM1325.31 1565.82C1325.31 1565.82 1325.31 1564.32 1325.31 1561.31V1550.76V1540.29V1535.71H1329.83H1340.37H1350.85H1355.43C1355.43 1535.71 1355.43 1537.23 1355.43 1540.29V1535.71H1359.94H1370.49H1380.96H1385.54C1385.54 1535.71 1385.54 1537.23 1385.54 1540.29V1535.71H1390.06H1400.6H1411.08H1415.66C1415.66 1535.71 1415.66 1537.23 1415.66 1540.29V1550.76V1561.31V1565.82C1415.66 1565.82 1414.13 1565.82 1411.08 1565.82H1400.6H1390.06H1385.54C1385.54 1565.82 1385.54 1564.32 1385.54 1561.31V1565.82C1385.54 1565.82 1384.02 1565.82 1380.96 1565.82H1385.54C1385.54 1565.82 1385.54 1567.35 1385.54 1570.4V1580.88V1591.42V1595.94C1385.54 1595.94 1384.02 1595.94 1380.96 1595.94H1385.54C1385.54 1595.94 1385.54 1597.47 1385.54 1600.52V1611V1621.54V1626.06C1385.54 1626.06 1384.02 1626.06 1380.96 1626.06H1385.54C1385.54 1626.06 1385.54 1627.59 1385.54 1630.64V1641.12V1651.66V1656.18C1385.54 1656.18 1384.02 1656.18 1380.96 1656.18H1385.54C1385.54 1656.18 1385.54 1657.7 1385.54 1660.76V1671.24V1681.78V1686.29C1385.54 1686.29 1384.02 1686.29 1380.96 1686.29H1385.54C1385.54 1686.29 1385.54 1687.82 1385.54 1690.87V1701.35V1711.89V1716.41C1385.54 1716.41 1384.02 1716.41 1380.96 1716.41H1385.54C1385.54 1716.41 1385.54 1717.94 1385.54 1720.99V1731.47V1742.01V1746.53C1385.54 1746.53 1384.02 1746.53 1380.96 1746.53H1385.54C1385.54 1746.53 1385.54 1748.06 1385.54 1751.11V1761.59V1772.13V1776.65C1385.54 1776.65 1384.02 1776.65 1380.96 1776.65H1385.54C1385.54 1776.65 1385.54 1778.17 1385.54 1781.23V1791.71V1802.25V1806.76C1385.54 1806.76 1384.02 1806.76 1380.96 1806.76H1385.54C1385.54 1806.76 1385.54 1808.29 1385.54 1811.35V1821.82V1832.36V1836.88C1385.54 1836.88 1384.02 1836.88 1380.96 1836.88H1385.54C1385.54 1836.88 1385.54 1838.41 1385.54 1841.46V1836.88H1390.06H1400.6H1411.08H1415.66C1415.66 1836.88 1415.66 1838.41 1415.66 1841.46V1851.94V1862.48V1867C1415.66 1867 1414.13 1867 1411.08 1867H1400.6H1390.06H1385.54C1385.54 1867 1385.54 1865.49 1385.54 1862.48V1867C1385.54 1867 1384.02 1867 1380.96 1867H1370.49H1359.94H1355.43C1355.43 1867 1355.43 1865.49 1355.43 1862.48V1867C1355.43 1867 1353.9 1867 1350.85 1867H1340.37H1329.83H1325.31C1325.31 1867 1325.31 1865.49 1325.31 1862.48V1851.94V1841.46V1836.88H1329.83H1340.37H1350.85H1355.43C1355.43 1836.88 1355.43 1838.41 1355.43 1841.46V1836.88C1355.43 1836.88 1355.43 1835.38 1355.43 1832.36V1821.82V1811.35V1806.76C1355.43 1806.76 1355.43 1805.26 1355.43 1802.25V1791.71V1781.23V1776.65C1355.43 1776.65 1355.43 1775.14 1355.43 1772.13V1761.59V1751.11V1746.53C1355.43 1746.53 1355.43 1745.02 1355.43 1742.01V1731.47V1720.99V1716.41C1355.43 1716.41 1355.43 1714.91 1355.43 1711.89V1701.35V1690.87V1686.29C1355.43 1686.29 1355.43 1684.79 1355.43 1681.78V1671.24V1660.76V1656.18C1355.43 1656.18 1355.43 1654.67 1355.43 1651.66V1641.12V1630.64V1626.06C1355.43 1626.06 1355.43 1624.55 1355.43 1621.54V1611V1600.52V1595.94C1355.43 1595.94 1355.43 1594.44 1355.43 1591.42V1580.88V1570.4V1565.82C1355.43 1565.82 1355.43 1564.32 1355.43 1561.31V1565.82C1355.43 1565.82 1353.9 1565.82 1350.85 1565.82H1340.37H1329.83H1325.31ZM1460.87 1867C1460.87 1867 1460.87 1865.49 1460.87 1862.48V1851.94V1841.46V1836.88C1460.87 1836.88 1460.87 1835.38 1460.87 1832.36V1821.82V1811.35V1806.76C1460.87 1806.76 1460.87 1805.26 1460.87 1802.25V1791.71V1781.23V1776.65C1460.87 1776.65 1460.87 1775.14 1460.87 1772.13V1761.59V1751.11V1746.53C1460.87 1746.53 1460.87 1745.02 1460.87 1742.01V1731.47V1720.99V1716.41C1460.87 1716.41 1460.87 1714.91 1460.87 1711.89V1701.35V1690.87V1686.29C1460.87 1686.29 1460.87 1684.79 1460.87 1681.78V1671.24V1660.76V1656.18C1460.87 1656.18 1460.87 1654.67 1460.87 1651.66V1641.12V1630.64V1626.06C1460.87 1626.06 1460.87 1624.55 1460.87 1621.54V1611V1600.52V1595.94C1460.87 1595.94 1460.87 1594.44 1460.87 1591.42V1580.88V1570.4V1565.82C1460.87 1565.82 1460.87 1564.32 1460.87 1561.31V1550.76V1540.29V1535.71H1465.39H1475.93H1486.4H1490.99C1490.99 1535.71 1490.99 1537.23 1490.99 1540.29V1535.71H1495.5H1506.04H1516.52H1521.1C1521.1 1535.71 1521.1 1537.23 1521.1 1540.29V1535.71H1525.62H1536.16H1546.64H1551.22C1551.22 1535.71 1551.22 1537.23 1551.22 1540.29V1535.71H1555.74H1566.28H1576.76H1581.34C1581.34 1535.71 1581.34 1537.23 1581.34 1540.29V1550.76V1561.31V1565.82C1581.34 1565.82 1579.81 1565.82 1576.76 1565.82H1566.28H1555.74H1551.22C1551.22 1565.82 1551.22 1564.32 1551.22 1561.31V1565.82C1551.22 1565.82 1549.69 1565.82 1546.64 1565.82H1536.16H1525.62H1521.1C1521.1 1565.82 1521.1 1564.32 1521.1 1561.31V1565.82C1521.1 1565.82 1519.58 1565.82 1516.52 1565.82H1506.04H1495.5H1490.99C1490.99 1565.82 1490.99 1564.32 1490.99 1561.31V1565.82C1490.99 1565.82 1489.46 1565.82 1486.4 1565.82H1490.99C1490.99 1565.82 1490.99 1567.35 1490.99 1570.4V1580.88V1591.42V1595.94C1490.99 1595.94 1489.46 1595.94 1486.4 1595.94H1490.99C1490.99 1595.94 1490.99 1597.47 1490.99 1600.52V1611V1621.54V1626.06C1490.99 1626.06 1489.46 1626.06 1486.4 1626.06H1490.99C1490.99 1626.06 1490.99 1627.59 1490.99 1630.64V1641.12V1651.66V1656.18C1490.99 1656.18 1489.46 1656.18 1486.4 1656.18H1490.99C1490.99 1656.18 1490.99 1657.7 1490.99 1660.76V1671.24V1681.78V1686.29C1490.99 1686.29 1489.46 1686.29 1486.4 1686.29H1490.99C1490.99 1686.29 1490.99 1687.82 1490.99 1690.87V1701.35V1711.89V1716.41C1490.99 1716.41 1489.46 1716.41 1486.4 1716.41H1490.99C1490.99 1716.41 1490.99 1717.94 1490.99 1720.99V1731.47V1742.01V1746.53C1490.99 1746.53 1489.46 1746.53 1486.4 1746.53H1490.99C1490.99 1746.53 1490.99 1748.06 1490.99 1751.11V1761.59V1772.13V1776.65C1490.99 1776.65 1489.46 1776.65 1486.4 1776.65H1490.99C1490.99 1776.65 1490.99 1778.17 1490.99 1781.23V1791.71V1802.25V1806.76C1490.99 1806.76 1489.46 1806.76 1486.4 1806.76H1490.99C1490.99 1806.76 1490.99 1808.29 1490.99 1811.35V1821.82V1832.36V1836.88C1490.99 1836.88 1489.46 1836.88 1486.4 1836.88H1490.99C1490.99 1836.88 1490.99 1838.41 1490.99 1841.46V1836.88H1495.5H1506.04H1516.52H1521.1C1521.1 1836.88 1521.1 1838.41 1521.1 1841.46V1836.88H1525.62H1536.16H1546.64H1551.22C1551.22 1836.88 1551.22 1838.41 1551.22 1841.46V1836.88H1555.74H1566.28H1576.76H1581.34C1581.34 1836.88 1581.34 1838.41 1581.34 1841.46V1851.94V1862.48V1867C1581.34 1867 1579.81 1867 1576.76 1867H1566.28H1555.74H1551.22C1551.22 1867 1551.22 1865.49 1551.22 1862.48V1867C1551.22 1867 1549.69 1867 1546.64 1867H1536.16H1525.62H1521.1C1521.1 1867 1521.1 1865.49 1521.1 1862.48V1867C1521.1 1867 1519.58 1867 1516.52 1867H1506.04H1495.5H1490.99C1490.99 1867 1490.99 1865.49 1490.99 1862.48V1867C1490.99 1867 1489.46 1867 1486.4 1867H1475.93H1465.39H1460.87ZM1581.34 1836.88C1581.34 1836.88 1581.34 1835.38 1581.34 1832.36V1821.82V1811.35V1806.76C1581.34 1806.76 1581.34 1805.26 1581.34 1802.25V1791.71V1781.23V1776.65C1581.34 1776.65 1581.34 1775.14 1581.34 1772.13V1761.59V1751.11V1746.53C1581.34 1746.53 1581.34 1745.02 1581.34 1742.01V1731.47V1720.99V1716.41C1581.34 1716.41 1581.34 1714.91 1581.34 1711.89V1701.35V1690.87V1686.29C1581.34 1686.29 1581.34 1684.79 1581.34 1681.78V1671.24V1660.76V1656.18C1581.34 1656.18 1581.34 1654.67 1581.34 1651.66V1641.12V1630.64V1626.06C1581.34 1626.06 1581.34 1624.55 1581.34 1621.54V1611V1600.52V1595.94C1581.34 1595.94 1581.34 1594.44 1581.34 1591.42V1580.88V1570.4V1565.82H1585.86H1596.4H1606.88H1611.46C1611.46 1565.82 1611.46 1567.35 1611.46 1570.4V1580.88V1591.42V1595.94C1611.46 1595.94 1609.93 1595.94 1606.88 1595.94H1611.46C1611.46 1595.94 1611.46 1597.47 1611.46 1600.52V1611V1621.54V1626.06C1611.46 1626.06 1609.93 1626.06 1606.88 1626.06H1611.46C1611.46 1626.06 1611.46 1627.59 1611.46 1630.64V1641.12V1651.66V1656.18C1611.46 1656.18 1609.93 1656.18 1606.88 1656.18H1611.46C1611.46 1656.18 1611.46 1657.7 1611.46 1660.76V1671.24V1681.78V1686.29C1611.46 1686.29 1609.93 1686.29 1606.88 1686.29H1611.46C1611.46 1686.29 1611.46 1687.82 1611.46 1690.87V1701.35V1711.89V1716.41C1611.46 1716.41 1609.93 1716.41 1606.88 1716.41H1611.46C1611.46 1716.41 1611.46 1717.94 1611.46 1720.99V1731.47V1742.01V1746.53C1611.46 1746.53 1609.93 1746.53 1606.88 1746.53H1611.46C1611.46 1746.53 1611.46 1748.06 1611.46 1751.11V1761.59V1772.13V1776.65C1611.46 1776.65 1609.93 1776.65 1606.88 1776.65H1611.46C1611.46 1776.65 1611.46 1778.17 1611.46 1781.23V1791.71V1802.25V1806.76C1611.46 1806.76 1609.93 1806.76 1606.88 1806.76H1611.46C1611.46 1806.76 1611.46 1808.29 1611.46 1811.35V1821.82V1832.36V1836.88C1611.46 1836.88 1609.93 1836.88 1606.88 1836.88H1596.4H1585.86H1581.34Z" fill="black"/>
</svg>
