<svg width="2048" height="2048" viewBox="0 0 2048 2048" fill="none" xmlns="http://www.w3.org/2000/svg">
<g clip-path="url(#clip0_166_444)">
<rect width="2048" height="2048" rx="256" fill="white"/>
<mask id="mask0_166_444" style="mask-type:alpha" maskUnits="userSpaceOnUse" x="0" y="0" width="2048" height="2048">
<rect width="2048" height="2048" fill="#D9D9D9"/>
</mask>
<g mask="url(#mask0_166_444)">
<path d="M432.149 1749.33C395.47 1749.33 364.053 1736.26 337.899 1710.1C311.744 1683.95 298.667 1652.53 298.667 1615.85V432.149C298.667 395.47 311.744 364.053 337.899 337.899C364.053 311.744 395.47 298.667 432.149 298.667H1615.85C1652.53 298.667 1683.95 311.744 1710.1 337.899C1736.26 364.053 1749.33 395.47 1749.33 432.149V1615.85C1749.33 1652.53 1736.26 1683.95 1710.1 1710.1C1683.95 1736.26 1652.53 1749.33 1615.85 1749.33H432.149ZM494.379 1127.38L848.405 773.355L1200.13 1125.1L1552.75 772.48L1642.11 861.867V432.149C1642.11 424.484 1639.65 418.19 1634.73 413.269C1629.81 408.348 1623.52 405.888 1615.85 405.888H432.149C424.484 405.888 418.19 408.348 413.269 413.269C408.349 418.19 405.888 424.484 405.888 432.149V1038.89L494.379 1127.38ZM432.149 1642.11H1615.85C1623.52 1642.11 1629.81 1639.65 1634.73 1634.73C1639.65 1629.81 1642.11 1623.52 1642.11 1615.85V1014.14L1552.75 924.779L1200.13 1277.38L848.405 925.653L494.379 1279.13L405.888 1191.17V1615.85C405.888 1623.52 408.349 1629.81 413.269 1634.73C418.19 1639.65 424.484 1642.11 432.149 1642.11ZM405.888 1642.11V1014.14V1121.37V405.888V1642.11Z" fill="#1C1B1F"/>
</g>
</g>
<defs>
<clipPath id="clip0_166_444">
<rect width="2048" height="2048" rx="256" fill="white"/>
</clipPath>
</defs>
</svg>
