<svg width="2048" height="2048" viewBox="0 0 2048 2048" fill="none" xmlns="http://www.w3.org/2000/svg">
<g clip-path="url(#clip0_166_459)">
<rect width="2048" height="2048" rx="256" fill="white"/>
<mask id="mask0_166_459" style="mask-type:alpha" maskUnits="userSpaceOnUse" x="0" y="0" width="2048" height="2048">
<rect width="2048" height="2048" fill="#D9D9D9"/>
</mask>
<g mask="url(#mask0_166_459)">
<path d="M1365.33 955.48C1386.23 955.48 1390.69 908.119 1405.41 893.413C1420.12 878.693 1467.48 874.226 1467.48 853.333C1467.48 832.441 1420.12 827.973 1405.41 813.253C1390.69 798.548 1386.23 751.187 1365.33 751.187C1344.44 751.187 1339.97 798.548 1325.25 813.253C1310.55 827.973 1263.19 832.441 1263.19 853.333C1263.19 874.226 1310.55 878.693 1325.25 893.413C1339.97 908.119 1344.44 955.48 1365.33 955.48ZM682.667 725.888H1109.33V618.667H682.667V725.888ZM416.001 1749.33C370.93 1593.76 325.889 1438.95 280.875 1284.93C235.848 1130.89 213.334 972.8 213.334 810.667C213.334 691.854 254.742 591.04 337.558 508.224C420.374 425.408 521.188 384 640.001 384H1088C1127.05 332.686 1173.91 291.413 1228.57 260.181C1283.21 228.949 1343.02 213.333 1408 213.333C1431.52 213.333 1451.63 221.675 1468.31 238.357C1484.99 255.04 1493.33 275.143 1493.33 298.667C1493.33 304.469 1492.54 310.265 1490.94 316.053C1489.37 321.856 1487.7 327.218 1485.95 332.139C1478.07 352.704 1471.37 373.767 1465.84 395.328C1460.32 416.875 1455.59 438.642 1451.65 460.629L1673.69 682.667H1834.67V1204.01L1601.79 1280.49L1461.33 1749.33H1066.67V1578.67H810.667V1749.33H416.001ZM496.683 1642.11H703.446V1471.45H1173.89V1642.11H1381.21L1514.35 1198.61L1727.45 1125.91V789.888H1629.42L1343.45 503.915C1344.03 471.815 1347.16 440.882 1352.83 411.115C1358.51 381.333 1365.74 351.566 1374.53 321.813C1327.3 334.357 1284.08 354.766 1244.89 383.04C1205.68 411.328 1175.17 447.388 1153.37 491.221H640.001C551.482 491.221 476.111 522.332 413.889 584.555C351.666 646.777 320.555 722.148 320.555 810.667C320.555 953.685 340.431 1093.42 380.182 1229.87C419.919 1366.31 458.753 1503.73 496.683 1642.11Z" fill="#1C1B1F"/>
</g>
</g>
<defs>
<clipPath id="clip0_166_459">
<rect width="2048" height="2048" rx="256" fill="white"/>
</clipPath>
</defs>
</svg>
