<svg width="2048" height="2048" viewBox="0 0 2048 2048" fill="none" xmlns="http://www.w3.org/2000/svg">
<g clip-path="url(#clip0_166_454)">
<rect width="2048" height="2048" rx="256" fill="white"/>
<mask id="mask0_166_454" style="mask-type:alpha" maskUnits="userSpaceOnUse" x="0" y="0" width="2048" height="2048">
<rect width="2048" height="2048" fill="#D9D9D9"/>
</mask>
<g mask="url(#mask0_166_454)">
<path d="M784.406 700.16V592.96H1519.59V700.16H784.406ZM784.406 946.325V839.104H1519.59V946.325H784.406ZM1038.23 1834.67H496.683C441.529 1834.67 394.738 1815.45 356.31 1777.02C317.881 1738.6 298.667 1691.8 298.667 1636.65V1375.19H554.667V213.333H1749.33V955.84C1730.92 954.645 1712.73 955.42 1694.78 958.165C1676.84 960.924 1659.28 965.511 1642.11 971.925V320.555H661.888V1375.19H1200.23L1093.03 1482.39H405.888V1636.65C405.888 1662.38 414.621 1683.95 432.086 1701.35C449.536 1718.75 470.592 1727.45 495.254 1727.45H1038.23V1834.67ZM1204.52 1834.67V1609.19L1667.78 1148.05C1678.39 1137.44 1689.87 1129.98 1702.23 1125.65C1714.59 1121.34 1726.95 1119.19 1739.33 1119.19C1752.55 1119.19 1765.49 1121.7 1778.13 1126.72C1790.76 1131.75 1802.11 1139.31 1812.18 1149.38L1891.11 1229.12C1900.89 1239.74 1908.15 1251.24 1912.9 1263.59C1917.63 1275.95 1920 1288.31 1920 1300.67C1920 1313.03 1917.46 1325.61 1912.38 1338.41C1907.32 1351.21 1899.98 1362.92 1890.37 1373.53L1429.99 1834.67H1204.52ZM1306.26 1732.93H1387.33L1664.32 1454.59L1625.11 1414.06L1585.39 1374.04L1306.26 1651.86V1732.93ZM1625.11 1414.06L1585.39 1374.04L1664.32 1454.59L1625.11 1414.06Z" fill="#1C1B1F"/>
</g>
</g>
<defs>
<clipPath id="clip0_166_454">
<rect width="2048" height="2048" rx="256" fill="white"/>
</clipPath>
</defs>
</svg>
