<svg width="2048" height="2048" viewBox="0 0 2048 2048" fill="none" xmlns="http://www.w3.org/2000/svg">
<g clip-path="url(#clip0_166_449)">
<rect width="2048" height="2048" rx="256" fill="white"/>
<mask id="mask0_166_449" style="mask-type:alpha" maskUnits="userSpaceOnUse" x="0" y="0" width="2048" height="2048">
<rect width="2048" height="2048" fill="#D9D9D9"/>
</mask>
<g mask="url(#mask0_166_449)">
<path d="M577.429 1438.53C595.591 1438.53 610.98 1432.22 623.595 1419.61C636.21 1406.98 642.517 1391.67 642.517 1373.7C642.517 1355.72 636.21 1340.33 623.595 1327.53C610.98 1314.73 595.677 1308.33 577.685 1308.33C559.709 1308.33 544.32 1314.74 531.52 1327.55C518.72 1340.35 512.32 1355.64 512.32 1373.42C512.32 1391.58 518.727 1406.98 531.541 1419.61C544.341 1432.22 559.637 1438.53 577.429 1438.53ZM523.819 1129.47H631.019V615.488H523.819V1129.47ZM970.389 1432.51H1524.18V1325.29H970.389V1432.51ZM970.389 1075.31H1524.18V968.107H970.389V1075.31ZM970.389 722.709H1524.18V615.488H970.389V722.709ZM338.709 1749.33C302.03 1749.33 270.613 1736.26 244.459 1710.1C218.318 1683.95 205.248 1652.53 205.248 1615.85V432.149C205.248 395.47 218.318 364.053 244.459 337.899C270.613 311.744 302.03 298.667 338.709 298.667H1709.29C1745.97 298.667 1777.39 311.744 1803.54 337.899C1829.68 364.053 1842.75 395.47 1842.75 432.149V1615.85C1842.75 1652.53 1829.68 1683.95 1803.54 1710.1C1777.39 1736.26 1745.97 1749.33 1709.29 1749.33H338.709ZM338.709 1642.11H1709.29C1715.86 1642.11 1721.88 1639.38 1727.34 1633.92C1732.81 1628.44 1735.55 1622.42 1735.55 1615.85V432.149C1735.55 425.579 1732.81 419.555 1727.34 414.08C1721.88 408.619 1715.86 405.888 1709.29 405.888H338.709C332.139 405.888 326.123 408.619 320.661 414.08C315.186 419.555 312.448 425.579 312.448 432.149V1615.85C312.448 1622.42 315.186 1628.44 320.661 1633.92C326.123 1639.38 332.139 1642.11 338.709 1642.11Z" fill="#1C1B1F"/>
</g>
</g>
<defs>
<clipPath id="clip0_166_449">
<rect width="2048" height="2048" rx="256" fill="white"/>
</clipPath>
</defs>
</svg>
