<svg width="2048" height="2048" viewBox="0 0 2048 2048" fill="none" xmlns="http://www.w3.org/2000/svg">
<g clip-path="url(#clip0_166_464)">
<rect width="2048" height="2048" rx="256" fill="white"/>
<mask id="mask0_166_464" style="mask-type:alpha" maskUnits="userSpaceOnUse" x="0" y="0" width="2048" height="2048">
<rect width="2048" height="2048" fill="#D9D9D9"/>
</mask>
<g mask="url(#mask0_166_464)">
<path d="M758.485 1749.33C630.044 1749.33 521.301 1704.8 432.255 1615.74C343.196 1526.7 298.666 1417.96 298.666 1289.51V758.485C298.666 630.044 343.196 521.301 432.255 432.256C521.301 343.196 630.044 298.667 758.485 298.667H1289.51C1417.95 298.667 1526.7 343.196 1615.74 432.256C1704.8 521.301 1749.33 630.044 1749.33 758.485V1289.51C1749.33 1417.96 1704.8 1526.7 1615.74 1615.74C1526.7 1704.8 1417.95 1749.33 1289.51 1749.33H758.485ZM937.791 1330.33L1420.24 847.872L1343.89 771.499L937.791 1177.6L740.543 980.907L664.17 1057.26L937.791 1330.33ZM758.719 1642.11H1289.28C1386.59 1642.11 1469.72 1607.64 1538.69 1538.69C1607.64 1469.72 1642.11 1386.59 1642.11 1289.28V758.72C1642.11 661.412 1607.64 578.275 1538.69 509.312C1469.72 440.363 1386.59 405.888 1289.28 405.888H758.719C661.411 405.888 578.275 440.363 509.311 509.312C440.362 578.275 405.887 661.412 405.887 758.72V1289.28C405.887 1386.59 440.362 1469.72 509.311 1538.69C578.275 1607.64 661.411 1642.11 758.719 1642.11Z" fill="#1C1B1F"/>
</g>
</g>
<defs>
<clipPath id="clip0_166_464">
<rect width="2048" height="2048" rx="256" fill="white"/>
</clipPath>
</defs>
</svg>
