<svg width="2048" height="2048" viewBox="0 0 2048 2048" fill="none" xmlns="http://www.w3.org/2000/svg">
<g clip-path="url(#clip0_166_469)">
<rect width="2048" height="2048" rx="256" fill="white"/>
<mask id="mask0_166_469" style="mask-type:alpha" maskUnits="userSpaceOnUse" x="0" y="0" width="2048" height="2048">
<rect width="2048" height="2048" fill="#D9D9D9"/>
</mask>
<g mask="url(#mask0_166_469)">
<path fill-rule="evenodd" clip-rule="evenodd" d="M328.041 920.717C362.13 903.909 397.854 891.909 434.829 892.603L361.9 764.821L479.723 558.379H701.548L818.817 764.821L785.025 824.309C817.04 809.822 850.249 801.601 889.759 799.647V669.823L794.902 504.405L912.748 299.221H1135.25L1253.1 504.405L1134 712.107H1009.22V806.464C1027.92 809.189 1045.18 813.47 1061.42 819.307H1134L1184 906.164C1225.58 950.973 1248.26 994.454 1258.28 1049.09H1392C1408.2 1049.09 1421.58 1061.12 1423.71 1076.74H1569.15L1686.98 1283.18L1569.15 1489.62H1347.88L1246.83 1307.65C1246.13 1308.62 1245.43 1309.59 1244.73 1310.56C1225.86 1336.63 1193.27 1359.04 1158.08 1377.79L1253.1 1543.06L1135.25 1748.78H1110.27C1104.6 1757.44 1098.31 1766.05 1091.42 1774.6C1054.92 1819.87 1012.42 1844.6 960.705 1856H1199.64L1346.45 1596.82H1631.23L1807.74 1283.18L1661.8 1024L1807.74 764.821L1631.23 451.179H1346.45L1199.64 192H848.364L701.548 451.179H416.769L240.257 764.821L328.041 920.717ZM1570.41 971.264H1347.88L1230.06 764.821L1347.88 558.379H1570.41L1686.98 764.821L1570.41 971.264Z" fill="#1C1B1F"/>
<path d="M1112.62 1534.47C1141.09 1606.82 1130.87 1674.94 1081.96 1738.84C1033.03 1802.73 967.307 1834.67 884.775 1834.67C842.806 1834.67 804.235 1823.65 769.063 1801.62C733.892 1779.59 706.329 1747.87 686.375 1706.46C592.807 1713.31 510.816 1681.9 440.402 1612.23C369.974 1542.55 337.021 1461.09 341.543 1367.85C301.437 1347.54 270.041 1316.58 247.357 1274.97C224.672 1233.35 213.33 1190.62 213.33 1146.75C213.33 1062.33 246.582 998.467 313.085 955.16C379.574 911.853 453.935 907.708 536.167 942.723L656.295 990.957C678.07 939.174 711.229 897.802 755.773 866.84C800.317 835.892 849.902 818.996 904.53 816.152V670.808C904.53 653.135 918.857 638.808 936.53 638.808H963.005C980.678 638.808 995.005 653.135 995.005 670.808V822.595C1054.7 831.754 1106.44 859.494 1150.23 905.816C1194 952.152 1220.78 1003.37 1230.55 1059.46H1382.01C1399.69 1059.46 1414.01 1073.79 1414.01 1091.46V1118.81C1414.01 1136.48 1399.69 1150.81 1382.01 1150.81H1236.67C1232.87 1204.88 1215.61 1254.28 1184.87 1299.01C1154.12 1343.74 1112.68 1377.08 1060.54 1399.02L1112.62 1534.47ZM652.029 1600.45C647.549 1562.05 648.423 1522.79 654.653 1482.67C660.896 1442.55 671.435 1403 686.269 1364.01C648.85 1381.78 609.895 1392.92 569.405 1397.44C528.914 1401.97 488.295 1401.22 447.549 1395.2C450.365 1449.18 472.487 1496.88 513.917 1538.31C555.346 1579.74 601.383 1600.45 652.029 1600.45ZM500.733 1291.93C554.919 1291.93 610.464 1279.57 667.367 1254.85C724.285 1230.12 773.835 1203.49 816.018 1174.98L509.586 1046.53C467.403 1028.78 425.348 1030.41 383.421 1051.42C341.508 1072.42 320.551 1103.84 320.551 1145.67C320.551 1185.38 340.825 1219.68 381.373 1248.58C421.92 1277.48 461.707 1291.93 500.733 1291.93ZM884.775 1727.45C930.585 1727.45 967.122 1711.63 994.386 1679.98C1021.64 1648.32 1027.42 1612.8 1011.75 1573.42L882.002 1240.94C847.172 1290.9 818.002 1340.56 794.493 1389.91C770.998 1439.28 759.25 1493.73 759.25 1553.28C759.25 1593.92 770.4 1633.1 792.701 1670.83C815.001 1708.58 845.693 1727.45 884.775 1727.45ZM1018.41 1298.71C1055.83 1279.75 1083.69 1254.45 1101.99 1222.79C1120.31 1191.13 1129.47 1156.55 1129.47 1119.06C1129.47 1065.97 1110.76 1020.39 1073.34 982.317C1035.92 944.244 990.809 925.208 938.002 925.208C898.877 925.208 862.802 935.035 829.778 954.691C796.754 974.346 773.245 1002.56 759.25 1039.32L944.999 1116.01L1018.41 1298.71Z" fill="#1C1B1F"/>
</g>
</g>
<defs>
<clipPath id="clip0_166_469">
<rect width="2048" height="2048" rx="256" fill="white"/>
</clipPath>
</defs>
</svg>
